<?xml version="1.0" encoding="UTF-8"?>
<!DOCTYPE svg PUBLIC "-//W3C//DTD SVG 1.1//EN" "http://www.w3.org/Graphics/SVG/1.1/DTD/svg11.dtd">
<svg xmlns="http://www.w3.org/2000/svg" version="1.1" width="539px" height="400px" style="shape-rendering:geometricPrecision; text-rendering:geometricPrecision; image-rendering:optimizeQuality; fill-rule:evenodd; clip-rule:evenodd" xmlns:xlink="http://www.w3.org/1999/xlink">
<g><path style="opacity:0.998" fill="#edf1fe" d="M 357.5,-0.5 C 360.5,-0.5 363.5,-0.5 366.5,-0.5C 387.437,3.2255 404.937,13.2255 419,29.5C 443.227,57.9999 456.394,90.9999 458.5,128.5C 458.807,137.987 457.807,147.32 455.5,156.5C 443.065,152.671 430.398,151.671 417.5,153.5C 414.887,152.565 412.221,152.398 409.5,153C 405.256,154.803 400.922,156.303 396.5,157.5C 394.503,154.84 393.003,151.84 392,148.5C 388.662,145.682 384.829,144.849 380.5,146C 375.251,148.127 369.918,149.96 364.5,151.5C 361.825,144.542 357.992,143.875 353,149.5C 352.51,150.793 352.343,152.127 352.5,153.5C 340.152,157.894 327.819,162.394 315.5,167C 312.976,168.883 311.642,171.383 311.5,174.5C 302.945,176.961 294.778,180.294 287,184.5C 286.145,187.819 287.312,190.152 290.5,191.5C 297.716,188.976 304.883,186.309 312,183.5C 313.03,183.164 313.53,182.497 313.5,181.5C 317.078,189.668 320.411,198.001 323.5,206.5C 314.913,208.417 306.747,211.417 299,215.5C 297.67,220.498 299.504,222.664 304.5,222C 310.833,219.667 317.167,217.333 323.5,215C 324.756,214.583 325.423,213.75 325.5,212.5C 326.321,217.146 329.154,219.48 334,219.5C 346.888,215.305 359.722,210.971 372.5,206.5C 377.992,211.044 381.658,209.877 383.5,203C 383.395,201.408 383.061,199.908 382.5,198.5C 388.515,196.439 394.515,194.272 400.5,192C 404.327,188.692 405.494,184.526 404,179.5C 403.209,178.255 402.709,176.922 402.5,175.5C 407.515,173.772 412.515,171.939 417.5,170C 419.041,168.629 420.375,167.129 421.5,165.5C 429.139,164.475 436.805,164.309 444.5,165C 447.191,165.156 449.524,165.989 451.5,167.5C 448.909,176.022 445.742,184.355 442,192.5C 433.078,209.344 424.411,226.344 416,243.5C 412.202,252.227 409.202,261.227 407,270.5C 404.019,288.219 408.685,303.552 421,316.5C 427.083,330.284 426.083,343.618 418,356.5C 399.71,381.236 375.21,395.569 344.5,399.5C 338.167,399.5 331.833,399.5 325.5,399.5C 309.786,397.311 295.453,391.478 282.5,382C 267.281,364.768 250.281,349.768 231.5,337C 212.339,326.094 193.006,325.76 173.5,336C 160.683,344.243 147.017,350.576 132.5,355C 124.031,356.401 116.031,355.068 108.5,351C 71.3947,326.537 53.5613,292.037 55,247.5C 55.1909,245.292 55.6909,243.292 56.5,241.5C 59.0935,258.59 69.0935,268.09 86.5,270C 101.524,270.941 115.857,268.441 129.5,262.5C 131.286,263.722 133.286,264.389 135.5,264.5C 140.172,262.832 144.839,261.165 149.5,259.5C 150.933,261.519 152.267,263.686 153.5,266C 155.134,267.308 156.968,268.142 159,268.5C 165.629,266.458 172.129,264.124 178.5,261.5C 181.249,265.171 184.916,266.337 189.5,265C 199.568,261.257 209.568,257.423 219.5,253.5C 221.407,256.332 224.073,257.166 227.5,256C 229.516,254.972 230.516,253.305 230.5,251C 224.089,232.098 217.089,213.431 209.5,195C 203.098,192.37 199.765,194.537 199.5,201.5C 188.602,204.633 177.935,208.466 167.5,213C 164.679,215.141 163.346,217.975 163.5,221.5C 157.485,223.561 151.485,225.728 145.5,228C 141.365,231.685 140.699,235.852 143.5,240.5C 143.137,241.183 142.804,241.85 142.5,242.5C 136.367,243.372 131.201,246.039 127,250.5C 126.517,251.448 126.351,252.448 126.5,253.5C 110.104,260.15 93.4372,260.983 76.5,256C 68.0683,250.385 64.9017,242.552 67,232.5C 69.7013,225.424 72.7013,218.424 76,211.5C 77.4847,206.895 78.6513,202.228 79.5,197.5C 90.4463,182.709 93.6129,166.375 89,148.5C 84.5868,140.005 79.9201,131.672 75,123.5C 71.7548,95.4904 82.2548,74.3238 106.5,60C 119.825,55.3675 133.158,55.3675 146.5,60C 178.607,79.9313 211.94,82.2646 246.5,67C 271.973,54.9341 294.64,38.9341 314.5,19C 327.188,8.65233 341.521,2.15233 357.5,-0.5 Z"/></g>
<g><path style="opacity:1" fill="#ffaa0e" d="M 276.5,114.5 C 281.827,113.175 284.494,115.175 284.5,120.5C 282.883,133.535 281.05,146.535 279,159.5C 277,160.833 275,160.833 273,159.5C 272.833,145.498 273.167,131.498 274,117.5C 274.698,116.309 275.531,115.309 276.5,114.5 Z"/></g>
<g><path style="opacity:1" fill="#ffaa0e" d="M 248.5,134.5 C 251.238,133.965 253.072,134.965 254,137.5C 255.202,145.642 257.035,153.642 259.5,161.5C 257.838,165.464 256.005,165.464 254,161.5C 251.702,153.605 249.202,145.772 246.5,138C 246.978,136.697 247.645,135.531 248.5,134.5 Z"/></g>
<g><path style="opacity:1" fill="#ffaa0e" d="M 205.5,137.5 C 206.873,137.343 208.207,137.51 209.5,138C 222.285,149.151 234.785,160.651 247,172.5C 247.667,174.5 247.667,176.5 247,178.5C 245.612,179.554 244.112,179.72 242.5,179C 230.789,168.954 218.789,159.287 206.5,150C 201.511,146.219 201.178,142.052 205.5,137.5 Z"/></g>
<g><path style="opacity:1" fill="#ffb52e" d="M 396.5,157.5 C 397.899,163.697 399.899,169.697 402.5,175.5C 402.709,176.922 403.209,178.255 404,179.5C 405.494,184.526 404.327,188.692 400.5,192C 394.515,194.272 388.515,196.439 382.5,198.5C 376.79,182.743 370.79,167.076 364.5,151.5C 369.918,149.96 375.251,148.127 380.5,146C 384.829,144.849 388.662,145.682 392,148.5C 393.003,151.84 394.503,154.84 396.5,157.5 Z"/></g>
<g><path style="opacity:1" fill="#ffaa0e" d="M 364.5,151.5 C 370.79,167.076 376.79,182.743 382.5,198.5C 383.061,199.908 383.395,201.408 383.5,203C 381.658,209.877 377.992,211.044 372.5,206.5C 366.601,188.459 359.934,170.792 352.5,153.5C 352.343,152.127 352.51,150.793 353,149.5C 357.992,143.875 361.825,144.542 364.5,151.5 Z"/></g>
<g><path style="opacity:1" fill="#c6d1fd" d="M 352.5,153.5 C 359.934,170.792 366.601,188.459 372.5,206.5C 359.722,210.971 346.888,215.305 334,219.5C 329.154,219.48 326.321,217.146 325.5,212.5C 324.833,210.5 324.167,208.5 323.5,206.5C 320.411,198.001 317.078,189.668 313.5,181.5C 313.122,179.079 312.455,176.746 311.5,174.5C 311.642,171.383 312.976,168.883 315.5,167C 327.819,162.394 340.152,157.894 352.5,153.5 Z"/></g>
<g><path style="opacity:1" fill="#ffaa0e" d="M 417.5,153.5 C 420.925,156.729 422.258,160.729 421.5,165.5C 420.375,167.129 419.041,168.629 417.5,170C 412.515,171.939 407.515,173.772 402.5,175.5C 399.899,169.697 397.899,163.697 396.5,157.5C 400.922,156.303 405.256,154.803 409.5,153C 412.221,152.398 414.887,152.565 417.5,153.5 Z"/></g>
<g><path style="opacity:0.944" fill="#dfe6fe" d="M 455.5,156.5 C 473.652,163.47 480.152,176.47 475,195.5C 471.61,204.614 467.943,213.614 464,222.5C 462.103,233.206 465.937,241.039 475.5,246C 486.393,248.961 497.393,249.294 508.5,247C 517.029,244.935 525.362,242.268 533.5,239C 535.265,238.36 536.932,238.527 538.5,239.5C 538.5,239.833 538.5,240.167 538.5,240.5C 530.816,251.382 520.15,257.549 506.5,259C 496.879,260.491 487.212,260.824 477.5,260C 455.849,252.866 448.349,238.366 455,216.5C 457.447,208.939 460.447,201.606 464,194.5C 467.321,184.141 464.821,175.641 456.5,169C 454.975,167.991 453.308,167.491 451.5,167.5C 449.524,165.989 447.191,165.156 444.5,165C 436.805,164.309 429.139,164.475 421.5,165.5C 422.258,160.729 420.925,156.729 417.5,153.5C 430.398,151.671 443.065,152.671 455.5,156.5 Z"/></g>
<g><path style="opacity:0.968" fill="#e0e6fe" d="M 79.5,197.5 C 78.6513,202.228 77.4847,206.895 76,211.5C 72.7013,218.424 69.7013,225.424 67,232.5C 64.9017,242.552 68.0683,250.385 76.5,256C 93.4372,260.983 110.104,260.15 126.5,253.5C 126.905,256.715 127.905,259.715 129.5,262.5C 115.857,268.441 101.524,270.941 86.5,270C 69.0935,268.09 59.0935,258.59 56.5,241.5C 56.2748,236.752 56.7748,232.085 58,227.5C 61.3395,218.823 64.6729,210.157 68,201.5C 69.5975,185.755 62.4309,177.255 46.5,176C 33.6981,175.516 21.0314,176.683 8.5,179.5C 5.111,179.482 2.111,178.482 -0.5,176.5C -0.5,175.167 -0.5,173.833 -0.5,172.5C 21.56,159.989 43.8933,159.489 66.5,171C 76.0374,177.242 80.3707,186.075 79.5,197.5 Z"/></g>
<g><path style="opacity:1" fill="#737373" d="M 311.5,174.5 C 312.455,176.746 313.122,179.079 313.5,181.5C 313.53,182.497 313.03,183.164 312,183.5C 304.883,186.309 297.716,188.976 290.5,191.5C 287.312,190.152 286.145,187.819 287,184.5C 294.778,180.294 302.945,176.961 311.5,174.5 Z"/></g>
<g><path style="opacity:1" fill="#fca300" d="M 219.5,253.5 C 213.346,235.878 206.68,218.544 199.5,201.5C 199.765,194.537 203.098,192.37 209.5,195C 217.089,213.431 224.089,232.098 230.5,251C 230.516,253.305 229.516,254.972 227.5,256C 224.073,257.166 221.407,256.332 219.5,253.5 Z"/></g>
<g><path style="opacity:1" fill="#c6d1fd" d="M 199.5,201.5 C 206.68,218.544 213.346,235.878 219.5,253.5C 209.568,257.423 199.568,261.257 189.5,265C 184.916,266.337 181.249,265.171 178.5,261.5C 174.02,247.891 169.02,234.558 163.5,221.5C 163.346,217.975 164.679,215.141 167.5,213C 177.935,208.466 188.602,204.633 199.5,201.5 Z"/></g>
<g><path style="opacity:1" fill="#737373" d="M 323.5,206.5 C 324.167,208.5 324.833,210.5 325.5,212.5C 325.423,213.75 324.756,214.583 323.5,215C 317.167,217.333 310.833,219.667 304.5,222C 299.504,222.664 297.67,220.498 299,215.5C 306.747,211.417 314.913,208.417 323.5,206.5 Z"/></g>
<g><path style="opacity:1" fill="#ffb52e" d="M 163.5,221.5 C 169.02,234.558 174.02,247.891 178.5,261.5C 172.129,264.124 165.629,266.458 159,268.5C 156.968,268.142 155.134,267.308 153.5,266C 152.267,263.686 150.933,261.519 149.5,259.5C 148.65,255.447 147.484,251.447 146,247.5C 145.303,245.416 144.136,243.749 142.5,242.5C 142.804,241.85 143.137,241.183 143.5,240.5C 140.699,235.852 141.365,231.685 145.5,228C 151.485,225.728 157.485,223.561 163.5,221.5 Z"/></g>
<g><path style="opacity:1" fill="#ffaa0e" d="M 142.5,242.5 C 144.136,243.749 145.303,245.416 146,247.5C 147.484,251.447 148.65,255.447 149.5,259.5C 144.839,261.165 140.172,262.832 135.5,264.5C 133.286,264.389 131.286,263.722 129.5,262.5C 127.905,259.715 126.905,256.715 126.5,253.5C 126.351,252.448 126.517,251.448 127,250.5C 131.201,246.039 136.367,243.372 142.5,242.5 Z"/></g>
<g><path style="opacity:1" fill="#ffaa0e" d="M 296.5,245.5 C 298.582,245.472 300.416,246.139 302,247.5C 311.28,261.113 320.946,274.446 331,287.5C 331.034,293.299 328.201,295.632 322.5,294.5C 312.4,279.965 303.067,264.965 294.5,249.5C 294.752,247.927 295.418,246.594 296.5,245.5 Z"/></g>
<g><path style="opacity:1" fill="#ffaa0e" d="M 260.5,255.5 C 265.675,254.507 267.509,256.507 266,261.5C 262.202,273.895 258.202,286.229 254,298.5C 250.837,299.919 247.837,299.585 245,297.5C 244.333,295.833 244.333,294.167 245,292.5C 250.182,280.141 255.348,267.808 260.5,255.5 Z"/></g>
<g><path style="opacity:1" fill="#ffaa0e" d="M 280.5,257.5 C 282.144,257.286 283.644,257.62 285,258.5C 286.088,267.817 286.421,277.15 286,286.5C 284,287.833 282,287.833 280,286.5C 279.194,276.756 279.361,267.089 280.5,257.5 Z"/></g>
</svg>
