<svg width="1847" height="1830" viewBox="0 0 1847 1830" fill="none" xmlns="http://www.w3.org/2000/svg">
<g clip-path="url(#clip0_1546_2344)">
<path d="M1110.1 731.599C1109.5 731.599 1108.9 731.399 1108.5 730.899C1107.6 729.999 1107.6 728.599 1108.5 727.699L1115.8 720.599C1116.7 719.699 1118.1 719.699 1119 720.599C1119.9 721.499 1119.9 722.899 1119 723.799L1111.7 730.899C1111.2 731.399 1110.7 731.599 1110.1 731.599Z" fill="#ffaa0e"/>
<path d="M1075.4 765.8C1074.8 765.8 1074.2 765.6 1073.8 765.1C1072.9 764.2 1072.9 762.8 1073.8 761.9L1081.1 754.8C1082 753.9 1083.4 753.9 1084.3 754.8C1085.2 755.7 1085.2 757.1 1084.3 758L1077 765.1C1076.5 765.6 1075.9 765.8 1075.4 765.8Z" fill="#ffaa0e"/>
<path d="M1082.9 731.299C1082.3 731.299 1081.7 731.099 1081.3 730.599L1074.2 723.299C1073.3 722.399 1073.4 720.999 1074.2 720.099C1075.1 719.199 1076.5 719.299 1077.4 720.099L1084.5 727.399C1085.4 728.299 1085.3 729.699 1084.5 730.599C1084 731.099 1083.4 731.299 1082.9 731.299Z" fill="#ffaa0e"/>
<path d="M1117 766.299C1116.4 766.299 1115.8 766.099 1115.4 765.599L1108.3 758.299C1107.4 757.399 1107.5 755.999 1108.3 755.099C1109.2 754.199 1110.6 754.299 1111.5 755.099L1118.6 762.399C1119.5 763.299 1119.4 764.699 1118.6 765.599C1118.1 766.099 1117.5 766.299 1117 766.299Z" fill="#ffaa0e"/>
<path d="M1309.8 1636.7C1308.6 1636.7 1307.6 1635.7 1307.6 1634.5C1307.6 1633.3 1308.6 1632.3 1309.8 1632.3L1320 1632.2C1321.2 1632.2 1322.2 1633.2 1322.2 1634.4C1322.2 1635.6 1321.2 1636.6 1320 1636.6L1309.8 1636.7Z" fill="#ffaa0e"/>
<path d="M1261.1 1637C1259.9 1637 1258.9 1636 1258.9 1634.8C1258.9 1633.6 1259.9 1632.6 1261.1 1632.6L1271.3 1632.5C1272.5 1632.5 1273.5 1633.5 1273.5 1634.7C1273.5 1635.9 1272.5 1636.9 1271.3 1636.9L1261.1 1637Z" fill="#ffaa0e"/>
<path d="M1290.5 1617.5C1289.3 1617.5 1288.3 1616.5 1288.3 1615.3V1605.1C1288.3 1603.9 1289.3 1602.9 1290.5 1602.9C1291.7 1602.9 1292.7 1603.9 1292.7 1605.1V1615.3C1292.7 1616.5 1291.7 1617.5 1290.5 1617.5Z" fill="#ffaa0e"/>
<path d="M1290.6 1666.4C1289.4 1666.4 1288.4 1665.4 1288.4 1664.2V1654C1288.4 1652.8 1289.4 1651.8 1290.6 1651.8C1291.8 1651.8 1292.8 1652.8 1292.8 1654V1664.2C1292.8 1665.4 1291.8 1666.4 1290.6 1666.4Z" fill="#ffaa0e"/>
<path d="M1449.6 711.2C1449.6 711.2 1472.4 708.1 1479.6 656.7C1486.7 605.3 1488.2 560.2 1535.3 546.2C1582.4 532.2 1640.5 554.8 1639.1 604.6C1637.7 654.4 1645.1 697 1674.9 719.1C1713.4 747.6 1728.5 731.5 1799.9 801C1889.8 888.5 1863.7 1154.8 1603.8 1081.7L1449.6 711.2Z" fill="black"/>
<path d="M1513.8 667.199C1513.8 667.199 1521.6 675.699 1537.7 672.699L1513.8 667.199Z" fill="white"/>
<path d="M1531 675.6C1518.6 675.6 1512.4 669 1512.1 668.7C1511.3 667.8 1511.3 666.4 1512.3 665.6C1513.2 664.8 1514.6 664.8 1515.4 665.7C1515.7 666 1522.7 673.3 1537.3 670.6C1538.5 670.4 1539.7 671.2 1539.9 672.4C1540.1 673.6 1539.3 674.8 1538.1 675C1535.5 675.4 1533.2 675.6 1531 675.6Z" fill="#ffaa0e"/>
<path d="M1519.7 1678.2C1519.7 1678.2 1506.2 1719.6 1492.7 1732.2C1479.2 1744.8 1425.5 1769.7 1424.8 1796.6C1423.9 1828 1442.1 1833.8 1490.9 1822.4C1526.1 1814.2 1555.2 1792.7 1565.6 1780.4C1574.8 1769.5 1569.7 1760.3 1567.4 1747.6C1564.6 1732 1564.1 1716.1 1564.1 1700.2V1674.3L1519.7 1678.2Z" fill="white"/>
<path d="M1454.2 1830C1444 1830 1436.7 1827.9 1431.6 1823.8C1425 1818.4 1422.1 1809.8 1422.5 1796.6C1423.1 1775.9 1452 1757.1 1473.1 1743.4C1480.9 1738.3 1487.6 1734 1491.2 1730.6C1504.1 1718.5 1517.5 1677.9 1517.6 1677.5C1517.9 1676.7 1518.6 1676.1 1519.5 1676L1563.9 1672.1C1564.5 1672 1565.1 1672.3 1565.6 1672.7C1566.1 1673.1 1566.3 1673.7 1566.3 1674.3V1700.2C1566.3 1714.3 1566.7 1731 1569.5 1747.2C1569.9 1749.7 1570.5 1752.1 1571 1754.4C1573.2 1763.6 1575.2 1772.3 1567.2 1781.9C1557 1794 1527.3 1816.3 1491.3 1824.7C1475.9 1828.2 1463.7 1830 1454.2 1830ZM1521.3 1680.2C1518.8 1687.7 1506.7 1722 1494.2 1733.7C1490.3 1737.3 1483.5 1741.8 1475.5 1747C1455.2 1760.2 1427.5 1778.2 1427 1796.6C1426.7 1808.3 1429 1815.8 1434.5 1820.3C1443 1827.3 1460.3 1827.2 1490.4 1820.2C1525.4 1812.1 1554.1 1790.6 1563.9 1778.9C1570.5 1771.1 1569 1764.5 1566.8 1755.3C1566.2 1752.9 1565.7 1750.5 1565.2 1747.9C1562.3 1731.3 1561.9 1714.4 1561.9 1700.1V1676.6L1521.3 1680.2Z" fill="black"/>
<path d="M1426.7 1811.8C1425.5 1811.8 1424.6 1810.9 1424.5 1809.7C1424.4 1808.5 1425.3 1807.4 1426.6 1807.3L1443.9 1806C1487.7 1802.8 1528.7 1784 1559.3 1752.9C1563.4 1748.7 1565.7 1746.1 1565.7 1746C1566.5 1745.1 1567.9 1745 1568.8 1745.8C1569.7 1746.6 1569.8 1748 1569 1748.9C1568.9 1749 1566.6 1751.7 1562.4 1756C1531 1787.9 1489 1807.2 1444.1 1810.5L1426.8 1811.8H1426.7Z" fill="#ffaa0e"/>
<path d="M1531.3 1745.3C1531.2 1745.3 1531.1 1745.3 1530.9 1745.3C1529.9 1745.1 1506.6 1741.1 1497.2 1728.9C1496.5 1727.9 1496.6 1726.5 1497.6 1725.8C1498.6 1725.1 1500 1725.2 1500.7 1726.2C1509 1737 1531.4 1740.9 1531.6 1740.9C1532.8 1741.1 1533.6 1742.3 1533.4 1743.5C1533.3 1744.5 1532.4 1745.3 1531.3 1745.3Z" fill="#ffaa0e"/>
<path d="M1510.7 1759.3C1510.5 1759.3 1510.4 1759.3 1510.2 1759.3C1509.3 1759.1 1487 1754.3 1479.8 1742.2C1479.2 1741.1 1479.5 1739.8 1480.6 1739.1C1481.7 1738.5 1483 1738.8 1483.7 1739.9C1489.9 1750.3 1511 1754.9 1511.2 1754.9C1512.4 1755.2 1513.2 1756.3 1512.9 1757.5C1512.7 1758.6 1511.7 1759.3 1510.7 1759.3Z" fill="#ffaa0e"/>
<path d="M1488.5 1772.5C1488.2 1772.5 1488 1772.5 1487.7 1772.4C1486.9 1772.1 1468.6 1765.2 1462.9 1753.1C1462.4 1752 1462.8 1750.7 1464 1750.1C1465.1 1749.6 1466.4 1750 1467 1751.2C1472 1761.7 1489.2 1768.2 1489.4 1768.2C1490.6 1768.6 1491.1 1769.9 1490.7 1771.1C1490.3 1772 1489.4 1772.5 1488.5 1772.5Z" fill="#ffaa0e"/>
<path d="M1623.8 1576.4C1625.4 1576.4 1648.9 1574.1 1662.5 1572.7C1667.8 1572.2 1672.5 1576 1673 1581.3L1675.7 1605.9C1676.6 1614.6 1678.4 1623.2 1680.8 1631.6C1685.3 1646.8 1691.8 1673.1 1688.2 1685.1C1684.4 1697.9 1672.3 1715.8 1664.4 1725.9C1660.7 1730.6 1654.6 1732.4 1648.9 1730.6C1638.8 1727.2 1622.7 1720.7 1613.3 1711.3C1598.8 1696.8 1614.5 1668.9 1614.5 1668.9L1623.8 1576.4Z" fill="white"/>
<path d="M1653.4 1733.4C1651.7 1733.4 1649.9 1733.1 1648.3 1732.6C1636.9 1728.8 1621.3 1722.2 1611.8 1712.7C1597.1 1698 1610.3 1671.8 1612.4 1668.1L1621.6 1576.2C1621.7 1575.1 1622.7 1574.2 1623.8 1574.2C1625 1574.2 1639.4 1572.8 1662.3 1570.5C1668.7 1569.9 1674.6 1574.6 1675.3 1581L1678 1605.6C1678.9 1614 1680.6 1622.5 1683.1 1630.9C1688.5 1649.3 1694.1 1673.7 1690.5 1685.6C1686.7 1698.3 1675.1 1715.9 1666.3 1727.1C1663 1731.2 1658.3 1733.4 1653.4 1733.4ZM1625.8 1578.5L1616.7 1669C1616.7 1669.3 1616.6 1669.6 1616.4 1669.9C1616.3 1670.2 1601.7 1696.5 1614.9 1709.6C1624.2 1718.9 1640.7 1725.4 1649.7 1728.4C1654.4 1730 1659.6 1728.4 1662.7 1724.5C1671.9 1712.7 1682.7 1695.8 1686.1 1684.4C1689.5 1672.9 1682.9 1646.8 1678.7 1632.2C1676.2 1623.6 1674.4 1614.8 1673.5 1606.2L1670.8 1581.6C1670.4 1577.6 1666.7 1574.6 1662.7 1575C1642.8 1576.9 1630.5 1578.1 1625.8 1578.5Z" fill="black"/>
<path d="M1642.6 1729.3C1642.2 1729.3 1641.7 1729.2 1641.3 1728.9C1640.3 1728.2 1640.1 1726.8 1640.8 1725.8C1668.5 1686.9 1666.6 1676.8 1662.6 1654.9C1661.7 1650.1 1660.7 1644.6 1659.9 1638.2C1657.7 1621.5 1651.3 1575.4 1651.2 1574.9C1651 1573.7 1651.9 1572.6 1653.1 1572.4C1654.3 1572.2 1655.4 1573.1 1655.6 1574.3C1655.7 1574.8 1662.1 1620.8 1664.3 1637.6C1665.1 1643.9 1666.1 1649.3 1667 1654C1671.1 1676.5 1673.2 1687.8 1644.5 1728.3C1644 1729 1643.3 1729.3 1642.6 1729.3Z" fill="#ffaa0e"/>
<path d="M1646.5 1658.9C1646.4 1658.9 1646.3 1658.9 1646.2 1658.9L1619.7 1655C1618.5 1654.8 1617.6 1653.7 1617.8 1652.5C1618 1651.3 1619.1 1650.4 1620.3 1650.6L1646.8 1654.5C1648 1654.7 1648.9 1655.8 1648.7 1657C1648.5 1658.1 1647.6 1658.9 1646.5 1658.9Z" fill="#ffaa0e"/>
<path d="M1643.8 1678C1643.7 1678 1643.6 1678 1643.5 1678L1617 1674.1C1615.8 1673.9 1614.9 1672.8 1615.1 1671.6C1615.3 1670.4 1616.4 1669.5 1617.6 1669.7L1644.1 1673.6C1645.3 1673.8 1646.2 1674.9 1646 1676.1C1645.8 1677.2 1644.9 1678 1643.8 1678Z" fill="#ffaa0e"/>
<path d="M1615 1686.5C1599.6 1697.1 1566.9 1710.8 1512.1 1694.4L1537.3 1138L1640.7 1118.3C1640.7 1118.3 1654.2 1256.6 1639.5 1395.8C1626.1 1522.9 1625.6 1631.2 1625.8 1665.6C1625.8 1673.9 1621.8 1681.8 1615 1686.5Z" fill="#ffaa0e"/>
<path d="M1635.9 1102L1388.6 1115.9L1397 1386.4C1398 1418 1407.7 1448.6 1425.2 1475C1453.2 1517.2 1497.8 1579.4 1533.2 1603.7C1588.9 1642 1635.9 1102 1635.9 1102Z" fill="#ffaa0e"/>
<path d="M1513 1594.5H1512.9C1511.7 1594.4 1510.7 1593.4 1510.8 1592.2L1519 1416.9C1519.1 1415.7 1520.1 1414.7 1521.3 1414.8C1522.5 1414.9 1523.5 1415.9 1523.4 1417.1L1515.2 1592.4C1515.2 1593.6 1514.2 1594.5 1513 1594.5Z" fill="white"/>
<path d="M1230 658.901C1231.6 658.601 1232.8 657.201 1232.8 655.501C1232.6 646.901 1230.8 621.001 1216.3 609.101C1198.7 594.701 1183.8 561.701 1173.2 564.901C1162.6 568.101 1186 596.801 1183.3 600.001C1180.6 603.201 1175 592.301 1169.2 581.601C1163.3 571.001 1168.6 568.601 1160.1 569.301C1148.4 570.301 1140.7 572.101 1156.1 606.701C1170.8 639.601 1200 638.601 1203.9 660.401C1204.2 662.301 1206 663.501 1207.9 663.101L1230 658.901Z" fill="white"/>
<path d="M1207.1 665.601C1206 665.601 1204.9 665.301 1203.9 664.601C1202.7 663.701 1201.8 662.501 1201.6 661.001C1199.9 651.501 1192.9 646.701 1184 640.601C1174.2 633.901 1161.9 625.501 1154 607.801C1145.6 588.901 1143.4 578.401 1146.7 572.801C1149.4 568.201 1155.2 567.701 1159.8 567.301C1165.5 566.801 1167.1 567.801 1168 572.301C1168.4 574.201 1168.9 576.801 1171.1 580.701L1172.4 583.201C1174.6 587.201 1177.5 592.601 1179.8 595.801C1178.8 593.901 1177.6 591.601 1176.5 589.601C1170.6 579.101 1166.6 571.201 1168.6 566.301C1169.3 564.601 1170.6 563.501 1172.5 562.901C1180.2 560.601 1187.7 570.901 1197.3 583.901C1203.4 592.201 1210.4 601.601 1217.6 607.501C1232.6 619.701 1234.7 645.201 1234.9 655.501C1235 658.201 1233 660.601 1230.3 661.101L1208.1 665.401C1207.9 665.501 1207.5 665.601 1207.1 665.601ZM1162.3 571.601C1161.8 571.601 1161.1 571.601 1160.2 571.701C1155.6 572.101 1152 572.601 1150.5 575.001C1148.1 579.001 1150.6 589.201 1158.1 605.901C1165.5 622.501 1176.7 630.101 1186.5 636.801C1195.9 643.201 1204 648.801 1206 660.101C1206.1 660.501 1206.3 660.701 1206.5 660.801C1206.8 661.001 1207.1 661.101 1207.4 661.001L1229.6 656.701C1230.2 656.601 1230.6 656.101 1230.6 655.501C1230.4 647.901 1228.8 622.201 1214.9 610.801C1207.3 604.601 1200.1 594.901 1193.8 586.401C1186.3 576.201 1178.5 565.701 1173.8 567.101C1173.1 567.301 1172.9 567.601 1172.8 567.901C1171.4 571.201 1176.8 580.901 1180.4 587.401C1185.1 595.801 1186.9 599.301 1185 601.501C1184.2 602.501 1183.1 603.001 1181.8 602.801C1178.1 602.401 1174.7 596.501 1168.5 585.201L1167.2 582.801C1164.7 578.301 1164.1 575.101 1163.7 573.101C1163.6 572.601 1163.5 571.901 1163.4 571.601C1163.2 571.601 1162.9 571.601 1162.3 571.601Z" fill="black"/>
<path d="M1752.9 1171C1754.5 1170.7 1756 1171.6 1756.6 1173C1759.5 1179.7 1767.5 1196.2 1780.1 1202.4C1789 1206.8 1797 1209.6 1807.9 1219.9C1818.8 1230.2 1837.4 1256.8 1833.3 1263.4C1828.5 1271.2 1813 1263.3 1801.1 1256C1789.2 1248.7 1777.4 1231.4 1765.8 1229.6C1754.2 1227.8 1778.7 1255.7 1775.2 1260.1C1771.7 1264.5 1759.2 1258 1751.2 1244.8C1748 1239.6 1729.2 1193.8 1723.5 1179.9C1722.7 1177.9 1723.9 1175.6 1726.1 1175.2L1752.9 1171Z" fill="white"/>
<path d="M1826.7 1268.9C1819.2 1268.9 1808.9 1263.4 1799.9 1257.9C1795 1254.9 1790.1 1250.2 1785.4 1245.7C1778.7 1239.3 1771.8 1232.7 1765.5 1231.8C1765.2 1231.8 1765.1 1231.7 1764.9 1231.7C1765 1233.9 1768.8 1240.4 1771.2 1244.3C1776.5 1253.2 1779.3 1258.4 1777 1261.4C1776.1 1262.5 1774.4 1263.8 1771.4 1263.6C1764.6 1263.2 1755.4 1255.7 1749.4 1245.9C1746.3 1240.7 1728.9 1198.6 1721.5 1180.7C1720.8 1179.1 1721 1177.3 1721.8 1175.8C1722.6 1174.3 1724.1 1173.3 1725.8 1173L1752.6 1168.8C1755.2 1168.4 1757.7 1169.8 1758.7 1172.1C1761.5 1178.7 1769.3 1194.6 1781.1 1200.4C1782.5 1201.1 1783.9 1201.8 1785.3 1202.4C1792.6 1205.8 1800.1 1209.4 1809.4 1218.2C1817.9 1226.3 1840.7 1255.6 1835.2 1264.5C1833.3 1267.7 1830.3 1268.9 1826.7 1268.9ZM1764.9 1227.3C1765.3 1227.3 1765.7 1227.3 1766.2 1227.4C1773.8 1228.6 1781.3 1235.7 1788.5 1242.5C1793.1 1246.8 1797.8 1251.3 1802.3 1254.1C1818.7 1264.1 1828.5 1266.9 1831.4 1262.2C1834.1 1257.9 1819.1 1233.6 1806.4 1221.5C1797.5 1213.1 1790.7 1209.9 1783.4 1206.5C1782 1205.8 1780.6 1205.2 1779.1 1204.5C1766 1198 1757.6 1181 1754.6 1174C1754.4 1173.5 1753.8 1173.2 1753.3 1173.3L1726.6 1177.5C1726.1 1177.6 1725.9 1177.9 1725.8 1178.1C1725.7 1178.3 1725.6 1178.7 1725.7 1179.1C1737.4 1207.7 1750.8 1239.7 1753.3 1243.7C1759 1253.1 1767.2 1259 1771.8 1259.3C1772.6 1259.4 1773.2 1259.2 1773.5 1258.9C1773.6 1257 1769.8 1250.6 1767.5 1246.7C1762.1 1237.6 1759.2 1232.3 1761.3 1229.1C1761.7 1228.2 1762.8 1227.3 1764.9 1227.3Z" fill="black"/>
<path d="M1508.7 707.6C1486.7 702.6 1470.3 697.8 1447.8 699C1422 700.4 1408.8 697.9 1387.4 708.5C1347.3 728.5 1331.4 783.3 1307.9 773.7C1284.4 764.1 1236.4 638.6 1236.4 638.6L1194.3 656.3C1194.3 656.3 1247.8 888.6 1290.5 902.5C1333.2 916.4 1385.1 850 1385.1 850C1385.1 850 1387 1018.4 1359.1 1129.9C1359.1 1129.9 1403.1 1129.7 1431.7 1141.5C1584.2 1204.7 1648.5 1129.9 1648.5 1129.9C1647.5 1086.6 1638 1056.9 1606.8 1008.7C1589.7 982.3 1584.9 939.7 1618.6 901.2C1618.6 901.2 1700.8 1155 1716.1 1184.9C1717.2 1187 1767.7 1175.7 1767.8 1174.5C1776 1083.5 1713.6 913.7 1704.5 872.5C1701.7 860 1698.1 847.8 1693.2 836C1677.8 799.2 1643.4 738.9 1579.2 723.5L1508.7 707.6Z" fill="white"/>
<path d="M1717.2 1187.3C1714.7 1187.3 1714.4 1186.7 1714 1185.8C1699.6 1157.7 1628.3 938.5 1617.6 905.6C1586.8 943.2 1593.3 983.7 1608.6 1007.4C1639.4 1055.1 1649.6 1084.8 1650.6 1129.8C1650.6 1130.4 1650.4 1130.9 1650.1 1131.3C1649.4 1132.1 1633.2 1150.6 1597.8 1161.5C1565.4 1171.5 1510.1 1176.4 1430.7 1143.5C1402.9 1132 1359.5 1132.1 1359 1132.1C1358.3 1132.1 1357.7 1131.8 1357.2 1131.2C1356.8 1130.7 1356.6 1130 1356.8 1129.3C1381.3 1031.3 1382.7 887.5 1382.7 856.1C1371.1 869.6 1336.4 906.6 1302.8 906.6C1298.4 906.6 1294 906 1289.7 904.5C1246.3 890.3 1194.2 666.2 1192 656.7C1191.8 655.6 1192.3 654.6 1193.3 654.1L1235.4 636.4C1236 636.2 1236.6 636.2 1237.1 636.4C1237.7 636.6 1238.1 637.1 1238.3 637.7C1251.6 672.4 1290 764 1308.6 771.6C1319.6 776.1 1329.4 763.6 1341.8 747.9C1353.6 733 1367 716.1 1386.2 706.5C1403.3 697.9 1415.4 697.6 1432.2 697.3C1437 697.2 1441.9 697.1 1447.5 696.8C1467.4 695.7 1482.7 699.3 1500.5 703.4C1503.3 704 1506.1 704.7 1509 705.4L1579.4 721.3C1645.2 737 1680.1 799.3 1695 835.1C1699.7 846.4 1703.5 858.5 1706.5 872C1708.6 881.6 1713.7 898.4 1720.1 919.6C1741.1 988.8 1776.1 1104.7 1769.8 1174.7C1769.6 1176.5 1769.6 1176.8 1756.7 1179.9C1749.7 1181.6 1741.2 1183.4 1734 1184.8C1724.6 1186.6 1719.8 1187.3 1717.2 1187.3ZM1618.5 898.9C1618.7 898.9 1618.8 898.9 1619 898.9C1619.8 899.1 1620.4 899.6 1620.7 900.4C1621.5 902.9 1701.4 1149.4 1717.6 1182.8C1724 1182.7 1759 1175.2 1765.7 1172.9C1771.4 1103.6 1736.8 989.3 1716 920.8C1709.5 899.5 1704.4 882.7 1702.3 872.9C1699.4 859.6 1695.7 847.8 1691.1 836.7C1676.5 801.7 1642.4 740.8 1578.6 725.5L1508.3 709.6C1505.3 708.9 1502.5 708.3 1499.7 707.6C1481.5 703.4 1467.2 700 1448 701.1C1442.3 701.4 1437.1 701.5 1432.6 701.6C1415.8 702 1404.7 702.2 1388.5 710.4C1370.2 719.6 1357.1 736.1 1345.6 750.6C1332.5 767.1 1321.2 781.4 1307.2 775.6C1284.5 766.4 1241.9 658.6 1235.3 641.4L1197 657.5C1202.1 679.3 1252.2 887.5 1291.3 900.3C1332 913.6 1382.9 849.2 1383.4 848.6C1384 847.9 1385 847.6 1385.9 847.9C1386.8 848.2 1387.4 849 1387.4 850C1387.4 851.7 1388.9 1017.2 1362 1127.7C1372.3 1127.9 1407.8 1129.2 1432.6 1139.5C1510.6 1171.8 1564.7 1167.1 1596.4 1157.4C1627.1 1148 1643.2 1132.4 1646.4 1129.1C1645.3 1085.6 1635.2 1056.5 1605.1 1009.9C1588.5 984.3 1581.7 940 1617.1 899.7C1617.3 899.2 1617.9 898.9 1618.5 898.9Z" fill="#ffaa0e"/>
<path d="M1481.5 1127.5C1480.7 1127.5 1479.9 1127 1479.5 1126.3L1419.1 1003.2C1418.6 1002.1 1419 1000.8 1420.1 1000.2C1421.2 999.6 1422.5 1000.1 1423.1 1001.2L1483.5 1124.3C1484 1125.4 1483.6 1126.7 1482.5 1127.3C1482.2 1127.4 1481.8 1127.5 1481.5 1127.5Z" fill="#ffaa0e"/>
<path d="M1428.7 1086.8C1427.8 1086.8 1427 1086.3 1426.6 1085.4L1410.1 1045.3C1409.6 1044.2 1410.2 1042.9 1411.3 1042.4C1412.4 1041.9 1413.7 1042.5 1414.2 1043.6L1430.7 1083.7C1431.2 1084.8 1430.6 1086.1 1429.5 1086.6C1429.2 1086.8 1428.9 1086.8 1428.7 1086.8Z" fill="#ffaa0e"/>
<path d="M1215.6 635.8H1164.4C1160.8 635.8 1157.8 633 1157.7 629.4L1152.8 536C1152.6 532.1 1155.7 528.9 1159.5 528.9H1219.9C1223.8 528.9 1226.8 532.1 1226.6 536L1222.2 629.4C1222.2 633 1219.2 635.8 1215.6 635.8Z" fill="#ffaa0e"/>
<path d="M1214.8 623.001C1214.1 623.001 1213.4 622.701 1213 622.101C1212.3 621.101 1212.5 619.701 1213.5 619.001C1246.9 594.701 1256.9 562.101 1249.1 550.301C1244 542.601 1231.9 543.601 1216 553.101C1214.9 553.701 1213.6 553.401 1212.9 552.301C1212.3 551.201 1212.6 549.901 1213.7 549.201C1239.6 533.701 1249.7 543.001 1252.8 547.801C1262.9 563.201 1249.4 598.401 1216.1 622.601C1215.7 622.901 1215.3 623.001 1214.8 623.001Z" fill="#ffaa0e"/>
<path d="M1158.1 618C1135.1 584.1 1139.3 568.2 1152.4 558.1C1153.2 557.5 1154.3 557.5 1155.1 558.1C1180.4 575.8 1186.7 595.7 1168.5 618.5C1165.7 621.8 1160.5 621.5 1158.1 618Z" fill="white"/>
<path d="M1163.4 623C1163.3 623 1163.2 623 1163 623C1160.2 622.9 1157.7 621.5 1156.1 619.2C1135.4 588.8 1133.8 569.4 1150.9 556.3C1152.4 555.1 1154.6 555.1 1156.2 556.2C1170.8 566.4 1179.1 577.4 1180.7 588.7C1182.1 598.7 1178.5 609.1 1170 619.8C1168.5 621.9 1166 623 1163.4 623ZM1153.7 559.9C1143.7 567.5 1135.5 580.8 1159.9 616.7C1160.7 617.8 1161.9 618.5 1163.3 618.6C1164.7 618.7 1165.9 618.1 1166.7 617.1C1174.4 607.5 1177.7 598.2 1176.4 589.5C1174.9 579.3 1167.3 569.4 1153.7 559.9Z" fill="black"/>
<path d="M1514.9 668.301C1499.2 657.501 1517.1 592.501 1534.9 582.901C1552.8 573.301 1590.2 583.801 1590.2 583.801C1576.3 629.501 1601.3 640.801 1604.8 640.801C1608.3 640.801 1619.4 641.501 1612.4 656.301C1605.4 671.101 1589.8 663.001 1589.8 663.001C1586.7 665.801 1580.7 668.901 1573.5 671.601C1564.8 697.301 1574.3 717.501 1582.5 728.901C1586.6 734.701 1583.7 742.901 1576.8 744.501C1565.7 747.101 1548.8 748.701 1527.5 743.101C1511.2 738.801 1500.3 732.901 1493.1 727.401C1487.2 722.901 1488.1 713.601 1494.9 710.501C1513.1 702.301 1525.3 675.501 1514.9 668.301Z" fill="white"/>
<path d="M1555.8 749.2C1547.5 749.2 1537.8 748.2 1527 745.3C1512.7 741.5 1500.9 736.1 1491.9 729.2C1488.5 726.6 1486.7 722.4 1487.2 718.1C1487.7 713.8 1490.3 710.2 1494.1 708.5C1506.4 702.8 1515.7 688.3 1516.5 678.3C1516.7 675.6 1516.4 671.9 1513.7 670C1508.5 666.4 1506.1 658 1506.8 645.6C1508.1 622.1 1520.5 588 1533.9 580.8C1552.3 570.9 1589.3 581.1 1590.9 581.5C1591.5 581.7 1592 582 1592.3 582.6C1592.6 583.2 1592.7 583.7 1592.5 584.3C1584.9 609.2 1589.3 623 1594.3 630.1C1598.6 636.2 1603.9 638.4 1605 638.4C1611.5 638.4 1614.4 640.9 1615.7 642.9C1617.8 646.2 1617.4 651 1614.6 657C1612.4 661.7 1609.1 664.9 1604.8 666.3C1598.9 668.3 1592.9 666.4 1590.3 665.4C1586.9 668 1581.7 670.7 1575.4 673.1C1567.8 696.9 1576.1 715.7 1584.4 727.4C1586.8 730.8 1587.4 735.1 1585.9 739C1584.5 742.8 1581.3 745.6 1577.4 746.5C1571.8 748.1 1564.5 749.2 1555.8 749.2ZM1516.1 666.5C1519.6 668.9 1521.3 673.3 1520.8 678.8C1519.8 690 1510 706.1 1495.8 712.6C1493.4 713.7 1491.8 716 1491.5 718.7C1491.2 721.5 1492.3 724.1 1494.5 725.7C1503.1 732.2 1514.4 737.4 1528.1 741C1549.3 746.6 1566 744.9 1576.3 742.4C1578.8 741.8 1580.8 740.1 1581.7 737.6C1582.6 735.1 1582.3 732.4 1580.7 730.2C1571.6 717.5 1562.6 696.9 1571.4 670.9C1571.6 670.3 1572.1 669.8 1572.7 669.5C1579.5 667 1585.4 663.9 1588.3 661.3C1589 660.7 1590 660.6 1590.8 661C1590.9 661 1597.4 664.3 1603.3 662.3C1606.4 661.3 1608.8 658.9 1610.5 655.3C1612.6 650.8 1613.1 647.4 1611.9 645.5C1610.9 643.9 1608.5 643 1604.9 643C1602.8 643 1596.4 640.6 1591.1 633.5C1585.3 625.7 1580.2 611.1 1587.5 585.3C1579.3 583.3 1550.5 577.1 1536 584.8C1525.3 590.6 1512.5 622 1511.2 645.9C1510.6 656.6 1512.3 663.8 1516.1 666.5Z" fill="black"/>
<path d="M1079.5 231.399C1076.6 193.699 1079.5 139.899 1111.9 94.9994C1201.5 -29.1006 1462.9 -10.9006 1513.7 90.3994C1539.5 141.799 1511.6 215.799 1469.9 256.499C1408.3 316.699 1304.4 316.099 1240.9 279.899C1180.5 245.399 1161.7 181.499 1123.4 187.399C1102.1 190.799 1087.9 213.599 1079.5 231.399Z" fill="white"/>
<path d="M1341.1 307.1C1304.6 307.1 1268.4 298.2 1239.8 281.9C1211.9 266 1193.2 244.4 1176.7 225.3C1158.1 203.7 1143.3 186.7 1123.7 189.7C1107.9 192.1 1093.7 206.5 1081.5 232.4C1081.1 233.3 1080.1 233.8 1079.1 233.6C1078.1 233.4 1077.4 232.6 1077.3 231.6C1073 176.2 1084 129.8 1110.1 93.7003C1133.1 61.8003 1169.3 37.0003 1214.7 22.0003C1255.2 8.60034 1303 3.30034 1349.1 7.00034C1429.6 13.5003 1493.5 45.0003 1515.7 89.4003C1542.1 142.1 1514 216.6 1471.5 258.1C1442.7 286.3 1401.8 303.5 1356.3 306.6C1351.2 306.9 1346.2 307.1 1341.1 307.1ZM1128.5 184.8C1147.8 184.8 1162.3 201.5 1180.2 222.3C1196.5 241.1 1214.9 262.4 1242.1 278C1303.6 313.1 1407.7 314.3 1468.4 254.9C1508.9 215.4 1536.9 141.6 1511.7 91.4003C1490.2 48.4003 1427.7 17.8003 1348.7 11.5003C1272.9 5.40034 1165.9 24.0003 1113.7 96.3003C1089.6 129.7 1078.7 172.3 1081.2 223C1093.3 200.4 1107.4 187.7 1123.1 185.2C1124.9 185 1126.7 184.8 1128.5 184.8Z" fill="#ffaa0e"/>
<path d="M1424.9 129H1204.8C1203.6 129 1202.6 128 1202.6 126.8C1202.6 125.6 1203.6 124.6 1204.8 124.6H1424.9C1426.1 124.6 1427.1 125.6 1427.1 126.8C1427.1 128 1426.1 129 1424.9 129Z" fill="black"/>
<path d="M1366.3 167.701H1255.5C1254.3 167.701 1253.3 166.701 1253.3 165.501C1253.3 164.301 1254.3 163.301 1255.5 163.301H1366.3C1367.5 163.301 1368.5 164.301 1368.5 165.501C1368.5 166.701 1367.5 167.701 1366.3 167.701Z" fill="black"/>
<path d="M1656.8 472.2C1662.4 464.3 1725.5 372.4 1685.9 267.5C1658.1 193.9 1587.3 134.2 1505.1 131C1491.2 130.5 1403.8 127 1356.9 196.9C1325.3 243.9 1321.8 309.6 1352.6 357.4C1389.1 414.2 1458.8 422.3 1469.1 423.3C1541.5 430.6 1581.4 384.1 1620.9 406.6C1645 420.3 1653.4 450.9 1656.8 472.2Z" fill="white"/>
<path d="M1656.8 474.4C1656.6 474.4 1656.5 474.4 1656.3 474.3C1655.4 474.1 1654.8 473.4 1654.6 472.5C1649.4 440.2 1637.7 418.7 1619.8 408.5C1600.3 397.4 1580.6 403.9 1555.7 412.1C1531.6 420 1504.4 429.1 1468.9 425.5C1450 423.6 1385.8 413.2 1350.7 358.5C1320.4 311.4 1322.2 244.4 1355.1 195.5C1398.1 131.6 1474.4 127.4 1505.2 128.6C1545 130.2 1583.7 144.8 1617.2 170.9C1648.8 195.6 1673.9 229.5 1687.9 266.5C1727.6 371.6 1665.7 463.2 1658.6 473.3C1658.1 474 1657.5 474.4 1656.8 474.4ZM1597.2 398.2C1605.6 398.2 1613.8 400 1622 404.6C1640.1 414.9 1652.2 435.6 1658 466.3C1672 444.8 1719.2 362 1683.7 268.2C1654.3 190.5 1582.5 136.2 1504.9 133.2C1474.8 132 1400.3 136 1358.6 198.1C1326.7 245.5 1325 310.5 1354.3 356.2C1389.2 410.5 1456.1 419.8 1469.2 421.1C1503.8 424.6 1530.6 415.7 1554.2 407.9C1569.6 402.9 1583.7 398.2 1597.2 398.2Z" fill="#ffaa0e"/>
<path d="M1615.8 264.201H1408.8C1407.6 264.201 1406.6 263.201 1406.6 262.001C1406.6 260.801 1407.6 259.801 1408.8 259.801H1615.8C1617 259.801 1618 260.801 1618 262.001C1618.1 263.201 1617.1 264.201 1615.8 264.201Z" fill="black"/>
<path d="M1549 291.201H1475C1473.8 291.201 1472.8 290.201 1472.8 289.001C1472.8 287.801 1473.8 286.801 1475 286.801H1549C1550.2 286.801 1551.2 287.801 1551.2 289.001C1551.2 290.201 1550.2 291.201 1549 291.201Z" fill="black"/>
<path d="M137.5 1739.5H925C958.5 1739.5 985.7 1711.9 985.7 1677.9L908.9 62.1C908.9 28.1 881.7 0.5 848.2 0.5H60.7C27.2 0.5 0 28.1 0 62.1L76.8 1678C76.8 1712 103.9 1739.5 137.5 1739.5Z" fill="black"/>
<path d="M190.8 1739.9H978.4C1011.9 1739.9 1039.1 1712.5 1039.1 1678.6L962.3 65.6008C962.3 31.7008 935.1 4.30078 901.6 4.30078H114.1C80.5999 4.30078 53.3999 31.7008 53.3999 65.6008L130.2 1678.6C130.2 1712.4 157.3 1739.9 190.8 1739.9Z" fill="white"/>
<path d="M899.8 1740H737.6C736.4 1740 735.4 1739 735.4 1737.8C735.4 1736.6 736.4 1735.6 737.6 1735.6H899.8C901 1735.6 902 1736.6 902 1737.8C902.1 1739 901.1 1740 899.8 1740Z" fill="#ffaa0e"/>
<path d="M652.6 1740H190.8C156.1 1740 127.9 1711.5 127.9 1676.5L98.6998 1130.5C98.5998 1129.3 99.5998 1128.2 100.8 1128.2C102 1128.2 103.1 1129.1 103.1 1130.3L132.3 1676.4C132.3 1709.1 158.5 1735.6 190.7 1735.6H652.5C653.7 1735.6 654.7 1736.6 654.7 1737.8C654.8 1739 653.8 1740 652.6 1740Z" fill="#ffaa0e"/>
<path d="M78.6001 615.8C77.4001 615.8 76.4001 614.9 76.4001 613.7L51.1001 63.7C51.2001 28.5 79.4001 0 114.1 0H901.7C936.4 0 964.6 28.5 964.6 63.5L970.6 210.2C970.6 211.4 969.7 212.5 968.5 212.5C967.2 212.6 966.2 211.6 966.2 210.4L960.2 63.6C960.2 30.9 934 4.4 901.8 4.4H114.1C81.8001 4.5 55.6001 31 55.6001 63.5L80.9001 613.4C81.0001 614.6 80.0001 615.7 78.8001 615.7C78.7001 615.8 78.7001 615.8 78.6001 615.8Z" fill="#ffaa0e"/>
<path d="M227.4 1693.8H946.6C977.2 1693.8 1002 1668.7 1002 1637.8L926.2 110.299C926.2 79.3988 901.4 54.2988 870.8 54.2988H151.6C121 54.2988 96.1997 79.3988 96.1997 110.299L172 1637.8C172 1668.7 196.8 1693.8 227.4 1693.8Z" fill="white"/>
<path d="M946.6 1696H227.4C195.6 1696 169.8 1669.9 169.8 1637.8L93.8999 110.4C93.8999 78.1996 119.8 52.0996 151.5 52.0996H870.7C902.5 52.0996 928.3 78.1996 928.3 110.3L1004.1 1637.7C1004.2 1669.9 978.4 1696 946.6 1696ZM151.6 56.5996C122.3 56.5996 98.3999 80.6996 98.3999 110.3L174.2 1637.7C174.2 1667.4 198.1 1691.6 227.4 1691.6H946.6C975.9 1691.6 999.8 1667.5 999.8 1637.9L924 110.4C924 80.6996 900.1 56.4996 870.8 56.4996H151.6V56.5996Z" fill="#ffaa0e"/>
<path d="M148.7 542.401C147.5 542.401 146.5 541.501 146.5 540.301L139.6 395.401C139.5 394.201 140.5 393.101 141.7 393.101C142.9 393.001 144 394.001 144 395.201L150.9 540.101C151 541.301 150 542.401 148.8 542.401C148.7 542.401 148.7 542.401 148.7 542.401Z" fill="#ffaa0e"/>
<path d="M908.1 408.9C906.9 408.9 905.9 408 905.9 406.8L893.1 137.3C893.1 108.6 871.2 85.3004 844.2 85.3004H180.7C153.7 85.3004 131.8 108.6 131.8 137.2L141.5 341.9C141.6 343.1 140.6 344.2 139.4 344.2C138.2 344.2 137.1 343.3 137.1 342.1L127.4 137.3C127.4 106.1 151.3 80.9004 180.7 80.9004H844.2C873.6 80.9004 897.5 106.2 897.5 137.2L910.3 406.6C910.4 407.8 909.4 408.9 908.2 408.9H908.1Z" fill="#ffaa0e"/>
<path d="M964.9 1382.4C963.7 1382.4 962.7 1381.5 962.7 1380.3L951.9 1153.1C951.8 1151.9 952.8 1150.8 954 1150.8C955.1 1150.7 956.3 1151.7 956.3 1152.9L967.1 1380.1C967.2 1381.3 966.2 1382.4 965 1382.4H964.9Z" fill="white"/>
<path d="M849.7 1669.3H422C420.8 1669.3 419.8 1668.3 419.8 1667.1C419.8 1665.9 420.8 1664.9 422 1664.9H849.7C850.9 1664.9 851.9 1665.9 851.9 1667.1C851.9 1668.3 850.9 1669.3 849.7 1669.3Z" fill="#ffaa0e"/>
<path d="M368.5 1669.3H250.6C221.2 1669.3 197.3 1644 197.3 1613L188 1415.9C187.9 1414.7 188.9 1413.6 190.1 1413.6C191.3 1413.5 192.4 1414.5 192.4 1415.7L201.7 1612.9C201.7 1641.6 223.6 1664.9 250.6 1664.9H368.5C369.7 1664.9 370.7 1665.9 370.7 1667.1C370.7 1668.3 369.7 1669.3 368.5 1669.3Z" fill="#ffaa0e"/>
<path d="M641.1 4.40039L626 29.7004C616.8 45.0004 601.3 54.2004 584.8 54.2004H431.6C415.4 54.2004 400.3 45.4004 391 30.6004L374.5 4.40039H641.1Z" fill="#ffaa0e"/>
<path d="M1003.2 965.5C1002 965.5 1001 964.6 1001 963.4L989.9 742.8C989.8 741.6 990.8 740.5 992 740.5C993.2 740.5 994.3 741.4 994.3 742.6L1005.4 963.2C1005.5 964.4 1004.5 965.5 1003.3 965.5H1003.2Z" fill="#ffaa0e"/>
<path d="M529.8 1177.2C748.781 1177.2 926.3 999.68 926.3 780.699C926.3 561.718 748.781 384.199 529.8 384.199C310.819 384.199 133.3 561.718 133.3 780.699C133.3 999.68 310.819 1177.2 529.8 1177.2Z" fill="white"/>
<path d="M529.8 1179.4C310 1179.4 131.1 1000.6 131.1 780.7C131.1 560.8 309.9 382 529.8 382C749.7 382 928.5 560.8 928.5 780.7C928.5 1000.6 749.6 1179.4 529.8 1179.4ZM529.8 386.5C312.4 386.5 135.6 563.4 135.6 780.7C135.6 998 312.4 1175 529.8 1175C747.2 1175 924 998.1 924 780.7C924 563.3 747.2 386.5 529.8 386.5Z" fill="#ffaa0e"/>
<path d="M750.2 1056.5L381.9 1077.2C381.9 1077.2 381.7 1109.5 380.9 1146.4C433.3 1172 491.8 1177.1 554.1 1177.1C629.1 1177.1 698.6 1140.7 758.4 1104.6L750.2 1056.5Z" fill="#ffaa0e"/>
<path d="M1062.8 344.101C1061.9 336.601 1066.2 328.301 1067.7 320.801C1071 304.501 1073.8 287.901 1073.3 271.201C1072.9 256.501 1072.2 243.201 1066.2 229.801C1062.1 220.701 1055.5 209.201 1042.8 210.401C1033.6 211.301 1025.1 217.101 1020 224.601C1013 235.001 1011.4 248.001 1011.8 260.501C1012.1 271.701 1016.2 285.401 1013.8 296.401C1011.3 308.101 1004.5 307.101 998.6 298.001C983.8 275.101 959.2 270.801 967.9 278.901C976.6 287.001 992.2 319.401 998 328.301C1000.1 331.501 1006.6 335.501 1013.9 339.201C1014 360.401 1011.3 392.901 996.3 428.301C978.4 470.501 950.3 499.601 927.1 518.201C946.1 551.501 987.5 605.801 1058.4 614.801C1068.5 594.801 1076.3 573.801 1081.8 552.101C1091.6 513.601 1093.8 473.301 1088.5 434.001C1085.8 414.101 1081.2 394.501 1074.7 375.501C1071.4 365.901 1066.8 356.701 1063.5 347.201C1063.1 346.201 1062.9 345.201 1062.8 344.101Z" fill="white"/>
<path d="M1058.3 617.101C1058.2 617.101 1058.1 617.101 1058 617.101C985.6 607.901 943.6 551.901 925 519.401C924.5 518.401 924.7 517.201 925.5 516.601C956.5 491.701 979.6 461.801 994.1 427.601C1005.6 400.501 1011.4 371.301 1011.5 340.701C1003 336.301 997.9 332.701 995.9 329.701C994 326.801 991.1 321.501 987.8 315.401C981.1 303.001 971.8 286.001 966.2 280.801C965.4 280.101 963.1 277.901 963.8 275.501C964 274.901 964.7 273.501 966.9 273.201C972.7 272.401 989.3 279.901 1000.3 297.001C1003.4 301.801 1006.2 303.201 1007.5 302.901C1009.1 302.601 1010.6 300.101 1011.4 296.101C1012.9 289.401 1011.7 281.401 1010.7 273.701C1010.1 269.301 1009.5 264.801 1009.3 260.701C1008.8 244.901 1011.7 232.801 1017.9 223.501C1023.6 215.001 1033 209.201 1042.3 208.301C1056.1 207.001 1063.2 218.701 1067.9 229.001C1073.9 242.301 1074.8 255.401 1075.2 271.201C1075.7 287.101 1073.3 302.801 1069.6 321.301C1069.1 324.001 1068.2 326.701 1067.4 329.401C1065.9 334.301 1064.3 339.401 1064.8 343.901C1064.9 344.901 1065.1 345.701 1065.4 346.601C1067 351.201 1068.9 355.801 1070.8 360.201C1072.8 365.001 1074.9 369.901 1076.6 374.901C1083.1 394.001 1087.8 413.801 1090.5 433.801C1095.8 473.201 1093.5 514.301 1083.8 552.801C1078.3 574.601 1070.3 595.901 1060.2 616.001C1060 616.601 1059.2 617.101 1058.3 617.101ZM929.9 518.801C948.4 550.601 988.7 603.001 1057.1 612.501C1066.7 593.101 1074.3 572.701 1079.6 551.701C1089.2 513.801 1091.5 473.301 1086.3 434.401C1083.6 414.701 1079 395.201 1072.6 376.401C1070.9 371.501 1068.9 366.701 1066.9 362.001C1065 357.501 1063 352.801 1061.4 348.101C1061 347.001 1060.7 345.701 1060.6 344.501C1060 339.101 1061.7 333.501 1063.4 328.201C1064.2 325.501 1065 323.001 1065.5 320.501C1069.1 302.301 1071.5 287.001 1071 271.401C1070.5 255.601 1069.8 243.401 1064.1 230.901C1060 221.901 1053.9 211.801 1043 212.801C1035 213.601 1026.9 218.601 1021.9 226.001C1016.2 234.501 1013.6 245.801 1014 260.601C1014.1 264.501 1014.7 268.701 1015.3 273.201C1016.4 281.301 1017.6 289.701 1016 297.101C1014.3 304.701 1011 306.901 1008.5 307.301C1004.7 308.001 1000.5 305.201 996.7 299.401C987.5 285.101 974.9 278.901 969.7 277.701C975.9 283.701 984.7 300.001 991.9 313.201C995.2 319.201 998 324.401 999.8 327.201C1000.7 328.601 1003.9 331.801 1014.9 337.301C1015.7 337.701 1016.1 338.401 1016.1 339.301C1016.2 371.001 1010.2 401.201 998.3 429.301C983.7 463.601 960.7 493.701 929.9 518.801Z" fill="black"/>
<path d="M927 518.301C912.1 530.301 899.2 538.001 892.3 542.001C779.4 609.101 710.6 532.201 525.6 537.101C458 538.901 411.6 529.301 290.9 581.701C290.9 581.701 71.1001 652.201 71.1001 877.301C71.1001 940.401 112.7 993.901 161.7 1011C205.5 956.201 219.5 924.901 253.8 911.501C253.6 908.901 229.8 892.601 230 890.001C235.9 832.801 255.2 816.501 277.4 805.901C287.6 801.101 299.5 806.901 300.7 818.101C305.9 867.201 298.6 906.301 309.6 1023C316 1090.8 322.8 1100.7 329.3 1107.4C372.3 1151.2 445.7 1092.6 617.1 1090C698.5 1088.8 752.1 1100.9 767.4 1072.8C778.4 1052.5 760.1 1028.5 746.7 993.301C730.2 949.701 718.7 882.501 747.5 782.701C861.6 795.401 973.7 744.101 1037.9 649.701C1045.5 638.501 1052.3 627.001 1058.3 615.101C987.4 605.801 946 551.501 927 518.301Z" fill="white"/>
<path d="M372.1 1125.7C354.2 1125.7 340 1121.2 327.8 1108.8C320.4 1101.3 313.7 1089.6 307.5 1023.1C301 953.8 300.9 912.3 300.8 878.9C300.7 856.1 300.7 838.1 298.6 818.2C298.1 813.9 295.7 810.2 292 808.1C287.9 805.8 282.9 805.7 278.5 807.8C258.5 817.3 238.5 831.4 232.4 889.6C233.6 891.3 239.9 896.3 244.1 899.6C253.5 907.1 255.9 909.2 256.1 911.1C256.2 912.1 255.6 913 254.7 913.4C230.4 923 216.6 941.6 193.7 972.6C185.2 984.2 175.5 997.3 163.5 1012.2C162.9 1012.9 161.9 1013.2 161 1012.9C107.7 994.4 69 937.3 69 877.2C69 760.1 129.2 685.4 179.7 643.3C234.4 597.8 289.8 579.7 290.3 579.5C392.4 535.2 442.3 535.2 495.2 535.1C505 535.1 515 535.1 525.5 534.8C601.4 532.8 656.8 544.3 705.6 554.4C774.9 568.8 825 579.2 891 540C897.8 535.9 910.5 528.4 925.4 516.5C925.9 516.1 926.6 515.9 927.2 516C927.8 516.1 928.4 516.5 928.7 517.1C946.9 548.9 987.9 603.6 1058.4 612.6C1059.1 612.7 1059.7 613.1 1060.1 613.8C1060.4 614.4 1060.4 615.2 1060.1 615.8C1054 627.9 1047.1 639.6 1039.6 650.6C975.2 745.6 864 796.9 749.2 784.9C726.8 863.8 726.7 933.6 748.9 992.3C752.4 1001.7 756.3 1010.1 760 1018.2C770.1 1040.4 778.1 1057.9 769.5 1073.7C757.7 1095.5 725.3 1094.5 676.3 1093C658.8 1092.4 639 1091.8 617.3 1092.2C541.1 1093.4 483.1 1105.9 440.9 1115C412.9 1120.9 390.5 1125.7 372.1 1125.7ZM285 801.8C288.2 801.8 291.3 802.6 294.1 804.2C299.1 807 302.4 812 303 817.7C305.1 837.8 305.2 855.9 305.2 878.8C305.3 912.1 305.4 953.5 311.9 1022.6C318 1087.6 324.4 1099 331 1105.6C354 1129 386.3 1122 439.9 1110.4C482.4 1101.2 540.5 1088.7 617.2 1087.5C639 1087.2 658.9 1087.8 676.4 1088.3C723.8 1089.8 755 1090.8 765.5 1071.4C773 1057.5 765.5 1040.9 755.9 1019.8C752.3 1012 748.3 1003.2 744.7 993.7C721.9 933.7 722.2 862.4 745.4 781.7C745.7 780.7 746.7 780 747.8 780.1C861.6 792.7 972.1 742.1 1036.1 648.1C1042.9 638.1 1049.2 627.5 1054.9 616.5C986 606.3 945.3 553.8 926.3 521.4C912.1 532.6 900 539.8 893.4 543.7C826 584 775.2 573.4 704.9 558.8C656.3 548.7 601.2 537.3 525.8 539.3C515.2 539.6 505.1 539.6 495.4 539.6C443 539.6 393.5 539.6 292 583.7C291.2 584 236.5 601.8 182.5 646.8C132.8 688.2 73.5 761.8 73.5 877.2C73.5 934.9 110.3 989.7 161.1 1008.2C172.5 993.9 181.9 981.2 190.2 970C212.7 939.6 226.6 920.8 250.3 910.5C248.2 908.6 244.4 905.5 241.4 903.1C229.8 893.9 227.8 891.8 228 889.6C234.3 828.7 256.4 813.4 276.7 803.8C279.3 802.5 282.2 801.8 285 801.8Z" fill="#ffaa0e"/>
<path d="M455.1 897.4C454.7 897.4 454.3 897.3 453.9 897.1C408.9 869.4 388 825.7 399.4 805.1C402.9 798.9 414.7 786.2 449.1 803.4C450.2 804 450.6 805.3 450.1 806.4C449.6 807.5 448.2 807.9 447.1 807.4C425.2 796.5 409.3 796.5 403.2 807.3C394.2 823.5 410.3 865.1 456.1 893.3C457.1 893.9 457.5 895.3 456.8 896.4C456.6 897.1 455.8 897.4 455.1 897.4Z" fill="#ffaa0e"/>
<path d="M455.6 914.7L521.6 909.6C526.2 909.2 529.8 905.3 529.7 900.7L526.7 779.7C526.6 774.7 522.3 770.8 517.3 771.2L439.3 777.2C434.3 777.6 430.7 782 431.3 787L446.2 907.1C446.8 911.7 450.9 915 455.6 914.7Z" fill="#ffaa0e"/>
<path d="M505.9 844.101C505.5 843.201 505 842.401 504.4 841.601C492.6 826.001 466.7 842.201 453.2 846.501C442.6 849.901 432 853.301 421.4 856.701L381 904.401C359.1 910.201 292.5 932.601 243.8 900.901C228.1 890.701 207.2 895.001 196.1 910.001C179.5 932.401 163.9 961.601 153.8 1007.3C232 1030.7 343.7 1002.1 394 957.301C416.9 958.201 434.8 936.001 448.5 920.701C456.2 912.101 463.5 901.801 473.3 895.401C482.3 889.601 493.2 886.001 500 877.201C504.3 871.601 506.3 864.501 507.2 857.401C507.7 852.901 507.7 848.101 505.9 844.101Z" fill="white"/>
<path d="M216.5 1018C194.5 1018 172.9 1015.3 153.1 1009.4C152 1009.1 151.3 1007.9 151.6 1006.8C160.3 967.501 173.8 936.301 194.3 908.701C206.3 892.501 228.6 888.301 245 899.001C289.1 927.701 348.9 911.001 374.4 903.901C376.3 903.401 378.1 902.901 379.6 902.501L419.6 855.301C419.9 855.001 420.2 854.701 420.6 854.601L452.4 844.401C455.1 843.501 458.4 842.201 461.8 840.701C476 834.701 495.5 826.501 506 840.301C506.7 841.201 507.3 842.201 507.8 843.301C509.5 847.101 510 851.701 509.2 857.801C508.1 866.601 505.7 873.401 501.6 878.701C496.6 885.101 489.6 888.901 482.9 892.501C480 894.001 477.1 895.601 474.4 897.401C467.2 902.001 461.3 909.001 455.6 915.801C453.7 918.001 451.9 920.201 450 922.301L447.2 925.501C433.7 940.801 416.9 959.701 395.2 959.701C395 959.701 394.8 959.701 394.7 959.701C357.5 992.201 284.9 1018 216.5 1018ZM156.4 1005.7C236.7 1028.7 344.8 998.001 392.4 955.601C392.8 955.201 393.4 955.001 394 955.001C414.3 955.701 430.7 937.201 443.9 922.301L446.8 919.101C448.7 917.001 450.5 914.901 452.3 912.701C458.2 905.701 464.3 898.501 472 893.401C474.8 891.601 477.9 889.901 480.8 888.401C487.4 884.801 493.7 881.501 498.1 875.801C501.7 871.201 503.9 865.101 504.8 857.101C505.4 851.901 505.1 848.001 503.7 845.001C503.4 844.201 502.9 843.501 502.4 842.901C494 831.901 477.1 839.001 463.5 844.701C459.9 846.201 456.6 847.601 453.7 848.501L422.5 858.501L382.5 905.801C382.2 906.201 381.8 906.401 381.4 906.501C379.7 906.901 377.7 907.501 375.5 908.101C349.4 915.401 288.2 932.501 242.4 902.701C227.9 893.201 208.3 897.001 197.7 911.301C178.2 937.901 165 967.901 156.4 1005.7Z" fill="black"/>
<path d="M493.3 432.801C479.9 439.601 469.7 440.601 462.4 440.101C436 438.601 419.1 417.301 415.7 413.101C398.2 391.101 389.8 355.001 404.6 333.801C415.3 318.501 428.7 324.301 441 307.201C455 287.801 440.6 272.001 453.5 255.001C468.3 235.501 501 237.001 506.9 237.201C527.1 238.101 529.5 248.101 548.5 247.601C568 247.101 570.5 237.301 588.4 237.201C602.6 237.101 623.3 243.201 632.5 259.601C644.1 280.201 632.2 307.301 618.4 321.601C601.8 338.801 590.2 329.601 567 343.601C526.8 367.901 536.4 411.101 493.3 432.801Z" fill="black"/>
<path d="M568.2 524.4L557.3 456.7C559.7 456.4 579.7 452.9 582 451.8C600.6 442.6 595.4 395.9 595.4 395.9L605.7 383.6L575 314.6C542.3 341.9 530.6 315.1 498.3 328.5C465.9 342 483.4 378 483.4 378C483.4 378 457 366.4 462.6 391.9C466.9 411.2 480.9 412.4 490.2 411.6L473 527.8C473 527.8 439.2 537.4 419.3 543C416.3 543.8 416.4 548.1 419.4 548.8C450.4 556.5 528.2 578.6 615.9 546.2C619.6 544.8 619.4 539.6 615.6 538.4L568.2 524.4Z" fill="white"/>
<path d="M518.4 565.5C476.3 565.5 442.1 556.8 422.9 552L418.7 550.9C416.4 550.3 414.8 548.3 414.7 545.9C414.7 543.5 416.2 541.4 418.5 540.8C436.1 535.9 464.3 527.9 470.9 526L487.5 414C472.7 414.4 463.6 407.1 460.3 392.4C458.5 384.4 459.6 378.8 463.4 375.6C467.9 371.9 474.8 372.9 479.4 374.2C477.2 367.7 474.2 355.7 478.4 344.6C481.5 336.5 487.8 330.4 497.2 326.5C511.7 320.5 522.6 322.3 532.1 323.9C544.7 326 555.5 327.8 573.4 313C573.9 312.6 574.6 312.4 575.3 312.5C576 312.7 576.5 313.1 576.8 313.8L607.6 382.7C607.9 383.5 607.8 384.4 607.3 385L597.6 396.6C598.3 403.6 601.3 444.6 582.9 453.7C580.5 454.9 565.6 457.5 559.7 458.5L570 522.6L616 536.3C618.7 537.1 620.4 539.4 620.5 542.2C620.6 545 619 547.4 616.4 548.3C581.6 561.2 548.1 565.5 518.4 565.5ZM490.2 409.4C490.8 409.4 491.4 409.7 491.8 410.1C492.3 410.6 492.5 411.3 492.4 412L475.1 528.1C475 529 474.3 529.7 473.5 529.9C473.5 529.9 439.7 539.5 419.7 545.1C419.2 545.2 419.1 545.6 419.1 545.9C419.1 546.2 419.2 546.5 419.7 546.7L423.9 547.8C456.1 555.9 531.5 575 614.9 544.2C616 543.8 616.1 542.7 616.1 542.4C616.1 542.1 616 541 614.8 540.7L567.4 526.6C566.6 526.4 566 525.7 565.8 524.8L555.1 457C555 456.4 555.2 455.8 555.5 455.3C555.9 454.8 556.4 454.5 557 454.4C559.9 454.1 578.9 450.7 581 449.7C595.1 442.7 594.6 408.6 593.2 396.1C593.1 395.5 593.3 394.9 593.7 394.4L603.1 383.1L574.1 318.1C556 332.2 544.1 330.3 531.5 328.2C522.1 326.6 512.4 325 499 330.5C490.8 333.9 485.3 339.1 482.7 346.1C477.4 360.2 485.3 376.7 485.4 376.9C485.8 377.7 485.7 378.7 485 379.4C484.4 380.1 483.4 380.3 482.5 379.9C479.4 378.5 470.3 375.7 466.3 379C463.3 381.4 463.8 387.1 464.8 391.3C467.8 404.8 475.8 410.5 490 409.3C490.1 409.4 490.2 409.4 490.2 409.4Z" fill="black"/>
<path d="M549.9 459.4C522.4 459.4 509.5 438.1 509.4 437.8C508.8 436.7 509.1 435.4 510.2 434.8C511.3 434.2 512.6 434.5 513.2 435.6C513.8 436.5 527.2 458.5 556.9 454.5C558.1 454.3 559.2 455.2 559.4 456.4C559.6 457.6 558.7 458.7 557.5 458.9C554.9 459.2 552.4 459.4 549.9 459.4Z" fill="black"/>
<path d="M442.2 1346.6C415.8 1346.6 394.3 1325.1 394.3 1298.7C394.3 1272.3 415.8 1250.8 442.2 1250.8C468.6 1250.8 490.1 1272.3 490.1 1298.7C490.1 1325.1 468.6 1346.6 442.2 1346.6ZM442.2 1255.3C418.3 1255.3 398.8 1274.8 398.8 1298.7C398.8 1322.6 418.3 1342.1 442.2 1342.1C466.1 1342.1 485.6 1322.6 485.6 1298.7C485.6 1274.8 466.1 1255.3 442.2 1255.3Z" fill="#ffaa0e"/>
<path d="M570.9 1346.6C544.5 1346.6 523 1325.1 523 1298.7C523 1272.3 544.5 1250.8 570.9 1250.8C597.3 1250.8 618.8 1272.3 618.8 1298.7C618.8 1325.1 597.3 1346.6 570.9 1346.6ZM570.9 1255.3C547 1255.3 527.5 1274.8 527.5 1298.7C527.5 1322.6 547 1342.1 570.9 1342.1C594.8 1342.1 614.3 1322.6 614.3 1298.7C614.3 1274.8 594.8 1255.3 570.9 1255.3Z" fill="#ffaa0e"/>
<path d="M702 1341.9C675.6 1341.9 654.1 1320.4 654.1 1294C654.1 1267.6 675.6 1246.1 702 1246.1C728.4 1246.1 749.9 1267.6 749.9 1294C749.8 1320.5 728.3 1341.9 702 1341.9ZM702 1250.6C678.1 1250.6 658.6 1270.1 658.6 1294C658.6 1317.9 678.1 1337.4 702 1337.4C725.9 1337.4 745.4 1317.9 745.4 1294C745.4 1270.1 725.9 1250.6 702 1250.6Z" fill="#ffaa0e"/>
<path d="M1022 1686.3C1022 1686.3 1073 1670.4 1156.5 1508.4C1227 1371.6 1164.1 1239.5 1151.5 1151.1C1150.2 1142.1 1137.9 1140.8 1134.8 1149.4C1113.7 1208.8 1079.7 1316.8 1085.2 1383.3C1093 1479 1022 1686.3 1022 1686.3Z" fill="white"/>
<path d="M1022 1688.5C1021.4 1688.5 1020.8 1688.3 1020.4 1687.8C1019.8 1687.2 1019.6 1686.3 1019.9 1685.5C1020.6 1683.4 1090.7 1477.6 1082.9 1383.3C1077.4 1316.3 1111.7 1207.4 1132.7 1148.5C1134.4 1143.7 1138.9 1140.8 1144 1141.3C1149.1 1141.8 1153 1145.6 1153.7 1150.7C1156.6 1170.6 1162.1 1193.1 1167.9 1217C1188.2 1299.8 1213.4 1402.9 1158.5 1509.4C1075.5 1670.4 1024.8 1687.8 1022.7 1688.5C1022.5 1688.5 1022.2 1688.5 1022 1688.5ZM1142.8 1145.7C1140.5 1145.7 1138 1146.8 1136.8 1150C1116 1208.6 1081.8 1316.8 1087.3 1383C1094.5 1469.9 1036.5 1649.6 1025.8 1682C1039.9 1673.9 1086.5 1639.2 1154.5 1507.4C1208.6 1402.4 1183.6 1300.2 1163.5 1218.1C1157.6 1194.2 1152.1 1171.6 1149.2 1151.4C1148.7 1147.7 1145.8 1146.1 1143.5 1145.8C1143.3 1145.7 1143 1145.7 1142.8 1145.7Z" fill="#ffaa0e"/>
<path d="M1077.3 1597.7L1095.5 1454.1C1103.4 1391.8 1093.2 1328.5 1066.1 1271.9C1026.7 1189.5 1023.6 1094.1 1057.6 1009.2L1086.8 936.3C1090.5 927.1 1078.7 919.6 1072.1 926.9L1031.1 972C938.2 1074.2 906.8 1218.9 948.9 1350.9L1024.4 1587.4L1077.3 1597.7Z" fill="white"/>
<path d="M1077.3 1600C1077.2 1600 1077 1600 1076.9 1600L1024 1589.8C1023.2 1589.6 1022.5 1589.1 1022.3 1588.3L946.8 1351.8C904.5 1219.3 936.2 1073.3 1029.4 970.7L1070.4 925.6C1074.7 920.9 1080.5 921.2 1084.4 923.7C1088.3 926.2 1091.2 931.3 1088.8 937.3L1059.6 1010.2C1025.9 1094.3 1029 1189.4 1068.1 1271.1C1095.4 1328.2 1105.6 1391.6 1097.7 1454.5L1079.5 1598.1C1079.4 1598.7 1079.1 1599.3 1078.6 1599.6C1078.2 1599.8 1077.7 1600 1077.3 1600ZM1026.1 1585.6L1075.4 1595.1L1093.3 1453.9C1101.1 1391.9 1091.1 1329.3 1064.1 1272.9C1024.5 1190.1 1021.4 1093.7 1055.5 1008.4L1084.7 935.5C1086.2 931.6 1084.2 928.7 1082 927.3C1079.9 926 1076.4 925.5 1073.7 928.5L1032.7 973.6C940.5 1075 909.2 1219.4 951 1350.4L1026.1 1585.6Z" fill="#ffaa0e"/>
<path d="M1053.8 1602.4L990.8 1441.5C972.9 1395.7 935.2 1360.8 888.5 1346.6L845.6 1333.6C835.2 1330.4 828.2 1344.2 836.8 1350.9L863.2 1371.4C891.8 1393.6 908.9 1427.8 909.6 1464.2C910 1485.6 916.1 1506.5 927.3 1524.8L970 1594.8L1053.8 1602.4Z" fill="white"/>
<path d="M1053.8 1604.7C1053.7 1604.7 1053.7 1604.7 1053.6 1604.7L969.7 1597.2C969 1597.1 968.4 1596.7 968 1596.1L925.3 1526.1C914 1507.5 907.8 1486.2 907.3 1464.4C906.6 1428.5 890 1395.2 861.7 1373.3L835.3 1352.8C829.8 1348.5 829.7 1342.1 832 1337.6C834.3 1333.2 839.5 1329.6 846.1 1331.6L889 1344.6C936.6 1359 974.5 1394.1 992.7 1440.8L1055.7 1601.7C1056 1602.4 1055.9 1603.2 1055.4 1603.8C1055.2 1604.3 1054.5 1604.7 1053.8 1604.7ZM971.3 1592.8L1050.5 1599.9L988.8 1442.4C971 1397 934.2 1362.9 887.9 1348.9L845 1335.9C840.6 1334.6 837.5 1337.1 836.1 1339.7C834.7 1342.3 834.5 1346.4 838.2 1349.3L864.6 1369.8C893.9 1392.6 911.1 1427 911.9 1464.3C912.3 1485.3 918.3 1505.9 929.2 1523.7L971.3 1592.8Z" fill="#ffaa0e"/>
<path d="M1044.5 1529.1C1044.4 1529.1 1044.4 1529.1 1044.3 1529.1C1043.1 1529 1042.2 1527.9 1042.3 1526.7C1051.9 1423.9 1031.3 1357.8 1013.1 1299.4C1004.7 1272.4 996.7 1247 992 1219.6C969.7 1090.4 1045.7 978.201 1046.4 977.101C1047.1 976.101 1048.5 975.801 1049.5 976.501C1050.5 977.201 1050.8 978.601 1050.1 979.601C1049.3 980.701 974.4 1091.4 996.4 1218.8C1001.1 1245.9 1009 1271.2 1017.3 1298.1C1035.6 1356.9 1056.4 1423.5 1046.7 1527.1C1046.6 1528.2 1045.7 1529.1 1044.5 1529.1Z" fill="#ffaa0e"/>
<path d="M1128.4 1460.4C1128.3 1460.4 1128.2 1460.4 1128 1460.4C1126.8 1460.2 1126 1459 1126.2 1457.8C1143.4 1356.3 1137.4 1200.1 1137.4 1198.6C1137.4 1197.4 1138.3 1196.3 1139.5 1196.3C1140.7 1196.2 1141.8 1197.2 1141.8 1198.4C1141.9 1200 1147.8 1356.6 1130.6 1458.6C1130.4 1459.6 1129.5 1460.4 1128.4 1460.4Z" fill="#ffaa0e"/>
<path d="M978 1544.4C976.8 1544.4 975.8 1543.4 975.8 1542.2C974.6 1415.8 873.6 1360.3 872.6 1359.7C871.5 1359.1 871.1 1357.8 871.7 1356.7C872.3 1355.6 873.6 1355.2 874.7 1355.8C875.7 1356.4 979 1413.1 980.3 1542.2C980.3 1543.4 979.3 1544.4 978 1544.4Z" fill="#ffaa0e"/>
<path d="M991.7 1308C991 1308 990.4 1307.7 989.9 1307.1C962.6 1272 950.5 1224.6 950.3 1224.1C950 1222.9 950.7 1221.7 951.9 1221.4C953.1 1221.1 954.3 1221.8 954.6 1223C954.7 1223.5 966.6 1270 993.3 1304.3C994.1 1305.3 993.9 1306.7 992.9 1307.4C992.7 1307.8 992.2 1308 991.7 1308Z" fill="#ffaa0e"/>
<path d="M1044.7 1789.4H1033.2C970.501 1789.4 919.601 1738.6 919.601 1675.8V1563.6H1158.2V1675.8C1158.3 1738.5 1107.4 1789.4 1044.7 1789.4Z" fill="white"/>
<path d="M1044.7 1791.6H1033.2C969.3 1791.6 917.4 1739.7 917.4 1675.8V1563.6C917.4 1562.4 918.4 1561.4 919.6 1561.4H1158.2C1159.4 1561.4 1160.4 1562.4 1160.4 1563.6V1675.8C1160.5 1739.6 1108.5 1791.6 1044.7 1791.6ZM921.8 1565.8V1675.8C921.8 1737.2 971.7 1787.1 1033.1 1787.1H1044.6C1106 1787.1 1155.9 1737.2 1155.9 1675.8V1565.8H921.8Z" fill="#ffaa0e"/>
<path d="M1134.9 1605.6H943C941.8 1605.6 940.8 1604.6 940.8 1603.4C940.8 1602.2 941.8 1601.2 943 1601.2H1134.8C1136 1601.2 1137 1602.2 1137 1603.4C1137.1 1604.6 1136.1 1605.6 1134.9 1605.6Z" fill="#ffaa0e"/>
</g>
<defs>
<clipPath id="clip0_1546_2344">
<rect width="1846.7" height="1830" fill="white"/>
</clipPath>
</defs>
</svg>
