<svg xmlns="http://www.w3.org/2000/svg" xmlns:xlink="http://www.w3.org/1999/xlink" width="500" zoomAndPan="magnify" viewBox="0 0 375 374.999991" height="500" preserveAspectRatio="xMidYMid meet" version="1.0"><defs><g/><clipPath id="73696e30fa"><path d="M 135.84375 118.226562 L 239.144531 118.226562 L 239.144531 200.726562 L 135.84375 200.726562 Z M 135.84375 118.226562 " clip-rule="nonzero"/></clipPath></defs><g fill="#ffffff" fill-opacity="1"><g transform="translate(106.883939, 246.331826)"><g><path d="M 16.015625 0.453125 C 13.265625 0.453125 10.78125 -0.140625 8.5625 -1.328125 C 6.34375 -2.515625 4.609375 -4.148438 3.359375 -6.234375 C 2.109375 -8.328125 1.484375 -10.675781 1.484375 -13.28125 C 1.484375 -15.894531 2.109375 -18.242188 3.359375 -20.328125 C 4.609375 -22.421875 6.34375 -24.0625 8.5625 -25.25 C 10.78125 -26.4375 13.265625 -27.03125 16.015625 -27.03125 C 18.773438 -27.03125 21.253906 -26.4375 23.453125 -25.25 C 25.660156 -24.0625 27.394531 -22.421875 28.65625 -20.328125 C 29.925781 -18.242188 30.5625 -15.894531 30.5625 -13.28125 C 30.5625 -10.675781 29.925781 -8.328125 28.65625 -6.234375 C 27.394531 -4.148438 25.660156 -2.515625 23.453125 -1.328125 C 21.253906 -0.140625 18.773438 0.453125 16.015625 0.453125 Z M 16.015625 -4.78125 C 17.585938 -4.78125 19.003906 -5.140625 20.265625 -5.859375 C 21.535156 -6.585938 22.53125 -7.597656 23.25 -8.890625 C 23.976562 -10.179688 24.34375 -11.644531 24.34375 -13.28125 C 24.34375 -14.925781 23.976562 -16.394531 23.25 -17.6875 C 22.53125 -18.976562 21.535156 -19.984375 20.265625 -20.703125 C 19.003906 -21.429688 17.585938 -21.796875 16.015625 -21.796875 C 14.453125 -21.796875 13.035156 -21.429688 11.765625 -20.703125 C 10.503906 -19.984375 9.507812 -18.976562 8.78125 -17.6875 C 8.0625 -16.394531 7.703125 -14.925781 7.703125 -13.28125 C 7.703125 -11.644531 8.0625 -10.179688 8.78125 -8.890625 C 9.507812 -7.597656 10.503906 -6.585938 11.765625 -5.859375 C 13.035156 -5.140625 14.453125 -4.78125 16.015625 -4.78125 Z M 16.015625 -4.78125 "/></g></g></g><g fill="#ffffff" fill-opacity="1"><g transform="translate(142.722712, 246.331826)"><g><path d="M 27.53125 -26.578125 L 27.53125 0 L 22.484375 0 L 9.21875 -16.140625 L 9.21875 0 L 3.15625 0 L 3.15625 -26.578125 L 8.234375 -26.578125 L 21.453125 -10.4375 L 21.453125 -26.578125 Z M 27.53125 -26.578125 "/></g></g></g><g fill="#ffffff" fill-opacity="1"><g transform="translate(177.194745, 246.331826)"><g><path d="M 8.65625 -21.5625 L 0.15625 -21.5625 L 0.15625 -26.578125 L 23.3125 -26.578125 L 23.3125 -21.5625 L 14.8125 -21.5625 L 14.8125 0 L 8.65625 0 Z M 8.65625 -21.5625 "/></g></g></g><g fill="#ffffff" fill-opacity="1"><g transform="translate(204.453482, 246.331826)"><g><path d="M 16.015625 0.453125 C 13.265625 0.453125 10.78125 -0.140625 8.5625 -1.328125 C 6.34375 -2.515625 4.609375 -4.148438 3.359375 -6.234375 C 2.109375 -8.328125 1.484375 -10.675781 1.484375 -13.28125 C 1.484375 -15.894531 2.109375 -18.242188 3.359375 -20.328125 C 4.609375 -22.421875 6.34375 -24.0625 8.5625 -25.25 C 10.78125 -26.4375 13.265625 -27.03125 16.015625 -27.03125 C 18.773438 -27.03125 21.253906 -26.4375 23.453125 -25.25 C 25.660156 -24.0625 27.394531 -22.421875 28.65625 -20.328125 C 29.925781 -18.242188 30.5625 -15.894531 30.5625 -13.28125 C 30.5625 -10.675781 29.925781 -8.328125 28.65625 -6.234375 C 27.394531 -4.148438 25.660156 -2.515625 23.453125 -1.328125 C 21.253906 -0.140625 18.773438 0.453125 16.015625 0.453125 Z M 16.015625 -4.78125 C 17.585938 -4.78125 19.003906 -5.140625 20.265625 -5.859375 C 21.535156 -6.585938 22.53125 -7.597656 23.25 -8.890625 C 23.976562 -10.179688 24.34375 -11.644531 24.34375 -13.28125 C 24.34375 -14.925781 23.976562 -16.394531 23.25 -17.6875 C 22.53125 -18.976562 21.535156 -19.984375 20.265625 -20.703125 C 19.003906 -21.429688 17.585938 -21.796875 16.015625 -21.796875 C 14.453125 -21.796875 13.035156 -21.429688 11.765625 -20.703125 C 10.503906 -19.984375 9.507812 -18.976562 8.78125 -17.6875 C 8.0625 -16.394531 7.703125 -14.925781 7.703125 -13.28125 C 7.703125 -11.644531 8.0625 -10.179688 8.78125 -8.890625 C 9.507812 -7.597656 10.503906 -6.585938 11.765625 -5.859375 C 13.035156 -5.140625 14.453125 -4.78125 16.015625 -4.78125 Z M 16.015625 -4.78125 "/></g></g></g><g fill="#ffffff" fill-opacity="1"><g transform="translate(240.292252, 246.331826)"><g><path d="M 14.65625 -26.578125 C 17.007812 -26.578125 19.050781 -26.179688 20.78125 -25.390625 C 22.519531 -24.609375 23.859375 -23.492188 24.796875 -22.046875 C 25.734375 -20.609375 26.203125 -18.90625 26.203125 -16.9375 C 26.203125 -14.988281 25.734375 -13.285156 24.796875 -11.828125 C 23.859375 -10.367188 22.519531 -9.253906 20.78125 -8.484375 C 19.050781 -7.710938 17.007812 -7.328125 14.65625 -7.328125 L 9.296875 -7.328125 L 9.296875 0 L 3.15625 0 L 3.15625 -26.578125 Z M 14.3125 -12.34375 C 16.15625 -12.34375 17.554688 -12.738281 18.515625 -13.53125 C 19.484375 -14.332031 19.96875 -15.46875 19.96875 -16.9375 C 19.96875 -18.425781 19.484375 -19.566406 18.515625 -20.359375 C 17.554688 -21.160156 16.15625 -21.5625 14.3125 -21.5625 L 9.296875 -21.5625 L 9.296875 -12.34375 Z M 14.3125 -12.34375 "/></g></g></g><g clip-path="url(#73696e30fa)"><path fill="#ffaa0e" d="M 195.96875 118.304688 L 197.316406 118.707031 L 236.050781 129.871094 L 239.144531 130.8125 L 239.144531 137.402344 L 236.457031 138.480469 L 200.273438 152.738281 L 199.464844 153.003906 L 175.523438 153.003906 L 174.851562 152.738281 L 151.984375 144.128906 L 151.851562 144.128906 C 148.058594 142.609375 144.453125 145.085938 144.453125 149.105469 L 144.453125 149.507812 C 144.453125 151.988281 145.707031 153.871094 148.085938 155.023438 C 148.183594 155.070312 148.253906 155.113281 148.355469 155.15625 L 187.496094 169.953125 L 219.910156 157.578125 C 229.03125 153.929688 239.144531 160.871094 239.144531 170.625 L 239.144531 171.03125 C 239.144531 177.054688 235.304688 182.183594 230.132812 184.480469 L 230 184.480469 L 229.863281 184.613281 L 188.976562 200.082031 L 187.496094 200.621094 L 186.015625 200.082031 L 158.847656 189.726562 L 158.980469 189.457031 L 135.84375 180.984375 L 135.84375 171.566406 L 161.9375 181.65625 L 161.9375 181.789062 L 162.074219 181.789062 L 187.496094 191.472656 L 226.636719 176.679688 L 226.90625 176.542969 C 229.285156 175.394531 230.539062 173.511719 230.539062 171.03125 L 230.539062 170.625 C 230.539062 166.605469 226.933594 164.132812 223.140625 165.648438 L 223.003906 165.648438 L 188.976562 178.5625 L 187.496094 179.101562 L 186.015625 178.5625 L 145.125 163.09375 L 144.992188 162.960938 L 144.855469 162.960938 C 139.6875 160.660156 135.84375 155.535156 135.84375 149.507812 L 135.84375 149.105469 C 135.84375 142.324219 140.828125 137.234375 146.875 135.789062 L 146.875 135.65625 L 148.21875 135.25 L 194.625 118.839844 Z M 196.105469 127.449219 L 163.015625 139.015625 L 177.136719 144.398438 L 177.273438 144.398438 L 187.496094 137.539062 L 197.71875 144.398438 L 222.0625 134.847656 Z M 196.105469 127.449219 " fill-opacity="1" fill-rule="nonzero"/></g></svg>