<svg xmlns="http://www.w3.org/2000/svg" xmlns:xlink="http://www.w3.org/1999/xlink" width="200" viewBox="0 0 400 400" height="200" preserveAspectRatio="xMidYMid meet" version="1.0"><defs><g/><clipPath id="ca1acf251d"><path d="M 41.09375 146.175781 L 144.394531 146.175781 L 144.394531 228.675781 L 41.09375 228.675781 Z M 41.09375 146.175781 " clip-rule="nonzero"/></clipPath></defs><g fill="#ffffff" fill-opacity="1"><g transform="translate(156.891627, 199.363959)"><g><path d="M 16.015625 0.453125 C 13.265625 0.453125 10.78125 -0.140625 8.5625 -1.328125 C 6.34375 -2.515625 4.609375 -4.148438 3.359375 -6.234375 C 2.109375 -8.328125 1.484375 -10.675781 1.484375 -13.28125 C 1.484375 -15.894531 2.109375 -18.242188 3.359375 -20.328125 C 4.609375 -22.421875 6.34375 -24.0625 8.5625 -25.25 C 10.78125 -26.4375 13.265625 -27.03125 16.015625 -27.03125 C 18.773438 -27.03125 21.253906 -26.4375 23.453125 -25.25 C 25.660156 -24.0625 27.394531 -22.421875 28.65625 -20.328125 C 29.925781 -18.242188 30.5625 -15.894531 30.5625 -13.28125 C 30.5625 -10.675781 29.925781 -8.328125 28.65625 -6.234375 C 27.394531 -4.148438 25.660156 -2.515625 23.453125 -1.328125 C 21.253906 -0.140625 18.773438 0.453125 16.015625 0.453125 Z M 16.015625 -4.78125 C 17.585938 -4.78125 19.003906 -5.140625 20.265625 -5.859375 C 21.535156 -6.585938 22.53125 -7.597656 23.25 -8.890625 C 23.976562 -10.179688 24.34375 -11.644531 24.34375 -13.28125 C 24.34375 -14.925781 23.976562 -16.394531 23.25 -17.6875 C 22.53125 -18.976562 21.535156 -19.984375 20.265625 -20.703125 C 19.003906 -21.429688 17.585938 -21.796875 16.015625 -21.796875 C 14.453125 -21.796875 13.035156 -21.429688 11.765625 -20.703125 C 10.503906 -19.984375 9.507812 -18.976562 8.78125 -17.6875 C 8.0625 -16.394531 7.703125 -14.925781 7.703125 -13.28125 C 7.703125 -11.644531 8.0625 -10.179688 8.78125 -8.890625 C 9.507812 -7.597656 10.503906 -6.585938 11.765625 -5.859375 C 13.035156 -5.140625 14.453125 -4.78125 16.015625 -4.78125 Z M 16.015625 -4.78125 "/></g></g></g><g fill="#ffffff" fill-opacity="1"><g transform="translate(192.7304, 199.363959)"><g><path d="M 27.53125 -26.578125 L 27.53125 0 L 22.484375 0 L 9.21875 -16.140625 L 9.21875 0 L 3.15625 0 L 3.15625 -26.578125 L 8.234375 -26.578125 L 21.453125 -10.4375 L 21.453125 -26.578125 Z M 27.53125 -26.578125 "/></g></g></g><g fill="#ffffff" fill-opacity="1"><g transform="translate(227.202433, 199.363959)"><g><path d="M 8.65625 -21.5625 L 0.15625 -21.5625 L 0.15625 -26.578125 L 23.3125 -26.578125 L 23.3125 -21.5625 L 14.8125 -21.5625 L 14.8125 0 L 8.65625 0 Z M 8.65625 -21.5625 "/></g></g></g><g fill="#ffffff" fill-opacity="1"><g transform="translate(254.46117, 199.363959)"><g><path d="M 16.015625 0.453125 C 13.265625 0.453125 10.78125 -0.140625 8.5625 -1.328125 C 6.34375 -2.515625 4.609375 -4.148438 3.359375 -6.234375 C 2.109375 -8.328125 1.484375 -10.675781 1.484375 -13.28125 C 1.484375 -15.894531 2.109375 -18.242188 3.359375 -20.328125 C 4.609375 -22.421875 6.34375 -24.0625 8.5625 -25.25 C 10.78125 -26.4375 13.265625 -27.03125 16.015625 -27.03125 C 18.773438 -27.03125 21.253906 -26.4375 23.453125 -25.25 C 25.660156 -24.0625 27.394531 -22.421875 28.65625 -20.328125 C 29.925781 -18.242188 30.5625 -15.894531 30.5625 -13.28125 C 30.5625 -10.675781 29.925781 -8.328125 28.65625 -6.234375 C 27.394531 -4.148438 25.660156 -2.515625 23.453125 -1.328125 C 21.253906 -0.140625 18.773438 0.453125 16.015625 0.453125 Z M 16.015625 -4.78125 C 17.585938 -4.78125 19.003906 -5.140625 20.265625 -5.859375 C 21.535156 -6.585938 22.53125 -7.597656 23.25 -8.890625 C 23.976562 -10.179688 24.34375 -11.644531 24.34375 -13.28125 C 24.34375 -14.925781 23.976562 -16.394531 23.25 -17.6875 C 22.53125 -18.976562 21.535156 -19.984375 20.265625 -20.703125 C 19.003906 -21.429688 17.585938 -21.796875 16.015625 -21.796875 C 14.453125 -21.796875 13.035156 -21.429688 11.765625 -20.703125 C 10.503906 -19.984375 9.507812 -18.976562 8.78125 -17.6875 C 8.0625 -16.394531 7.703125 -14.925781 7.703125 -13.28125 C 7.703125 -11.644531 8.0625 -10.179688 8.78125 -8.890625 C 9.507812 -7.597656 10.503906 -6.585938 11.765625 -5.859375 C 13.035156 -5.140625 14.453125 -4.78125 16.015625 -4.78125 Z M 16.015625 -4.78125 "/></g></g></g><g fill="#ffffff" fill-opacity="1"><g transform="translate(290.29994, 199.363959)"><g><path d="M 14.65625 -26.578125 C 17.007812 -26.578125 19.050781 -26.179688 20.78125 -25.390625 C 22.519531 -24.609375 23.859375 -23.492188 24.796875 -22.046875 C 25.734375 -20.609375 26.203125 -18.90625 26.203125 -16.9375 C 26.203125 -14.988281 25.734375 -13.285156 24.796875 -11.828125 C 23.859375 -10.367188 22.519531 -9.253906 20.78125 -8.484375 C 19.050781 -7.710938 17.007812 -7.328125 14.65625 -7.328125 L 9.296875 -7.328125 L 9.296875 0 L 3.15625 0 L 3.15625 -26.578125 Z M 14.3125 -12.34375 C 16.15625 -12.34375 17.554688 -12.738281 18.515625 -13.53125 C 19.484375 -14.332031 19.96875 -15.46875 19.96875 -16.9375 C 19.96875 -18.425781 19.484375 -19.566406 18.515625 -20.359375 C 17.554688 -21.160156 16.15625 -21.5625 14.3125 -21.5625 L 9.296875 -21.5625 L 9.296875 -12.34375 Z M 14.3125 -12.34375 "/></g></g></g><g clip-path="url(#ca1acf251d)"><path fill="#ffaa0e" d="M 101.21875 146.25 L 102.5625 146.65625 L 141.300781 157.820312 L 144.394531 158.761719 L 144.394531 165.351562 L 141.703125 166.425781 L 105.523438 180.683594 L 104.714844 180.953125 L 80.773438 180.953125 L 80.101562 180.683594 L 57.234375 172.078125 L 57.101562 172.078125 C 53.304688 170.558594 49.703125 173.035156 49.703125 177.054688 L 49.703125 177.457031 C 49.703125 179.9375 50.957031 181.820312 53.332031 182.972656 C 53.429688 183.019531 53.5 183.0625 53.601562 183.105469 L 92.742188 197.902344 L 125.160156 185.527344 C 134.28125 181.878906 144.394531 188.820312 144.394531 198.574219 L 144.394531 198.976562 C 144.394531 205.003906 140.550781 210.132812 135.382812 212.429688 L 135.246094 212.429688 L 135.113281 212.5625 L 94.222656 228.03125 L 92.742188 228.570312 L 91.265625 228.03125 L 64.09375 217.675781 L 64.226562 217.40625 L 41.09375 208.929688 L 41.09375 199.515625 L 67.1875 209.605469 L 67.1875 209.738281 L 67.320312 209.738281 L 92.742188 219.421875 L 131.886719 204.628906 L 132.152344 204.492188 C 134.53125 203.339844 135.785156 201.457031 135.785156 198.976562 L 135.785156 198.574219 C 135.785156 194.554688 132.179688 192.082031 128.386719 193.597656 L 128.253906 193.597656 L 94.222656 206.511719 L 92.742188 207.046875 L 91.265625 206.511719 L 50.375 191.042969 L 50.238281 190.90625 L 50.105469 190.90625 C 44.933594 188.609375 41.09375 183.484375 41.09375 177.457031 L 41.09375 177.054688 C 41.09375 170.273438 46.074219 165.183594 52.121094 163.738281 L 52.121094 163.601562 L 53.46875 163.199219 L 99.871094 146.789062 Z M 101.351562 155.398438 L 68.265625 166.964844 L 82.386719 172.34375 L 82.519531 172.34375 L 92.742188 165.484375 L 102.964844 172.34375 L 127.3125 162.796875 Z M 101.351562 155.398438 " fill-opacity="1" fill-rule="nonzero"/></g></svg>