<svg className="flex-shrink-0 kbkb7 h-auto" width="35" height="22" viewBox="0 0 35 22" fill="none" xmlns="http://www.w3.org/2000/svg">
                <mask id="mask0_666_270977" maskUnits="userSpaceOnUse" x="0" y="5" width="35" height="12">
                    <path d="M34.5 5.4751H0.5V16.5081H34.5V5.4751Z" fill="white"></path>
                </mask>
                <g mask="url(#mask0_666_270977)">
                    <path d="M15.239 16.3211H12.468L14.202 5.6621H16.973L15.239 16.3211ZM10.139 5.6621L7.487 12.9891L7.181 11.4081L6.246 6.6311C6.246 6.6311 6.127 5.6791 4.937 5.6791H0.551L0.5 5.8491C0.5 5.8491 1.843 6.1211 3.407 7.0731L5.821 16.3381H8.711L13.131 5.6791L10.139 5.6621ZM31.95 16.3211H34.5L32.273 5.6621H30.046C29.009 5.6621 28.771 6.4611 28.771 6.4611L24.64 16.3211H27.53L28.108 14.7401H31.627L31.95 16.3211ZM28.907 12.5471L30.369 8.5521L31.185 12.5471H28.907ZM24.844 8.2291L25.235 5.9341C25.235 5.9341 24.011 5.4751 22.736 5.4751C21.359 5.4751 18.095 6.0701 18.095 9.0111C18.095 11.7651 21.937 11.7991 21.937 13.2441C21.937 14.6891 18.503 14.4341 17.364 13.5161L16.956 15.9131C16.956 15.9131 18.197 16.5081 20.084 16.5081C21.971 16.5081 24.827 15.5221 24.827 12.8531C24.827 10.0821 20.951 9.8271 20.951 8.6201C20.951 7.4131 23.654 7.5661 24.844 8.2291Z" fill="#2566AF"></path>
                    <path d="M7.181 11.4252L6.246 6.6312C6.246 6.6312 6.127 5.6792 4.937 5.6792H0.551L0.5 5.8492C0.5 5.8492 2.608 6.2912 4.614 7.9232C6.552 9.4702 7.181 11.4252 7.181 11.4252Z" fill="#E6A540"></path>
                </g>
            </svg>