<svg xmlns="http://www.w3.org/2000/svg" xmlns:xlink="http://www.w3.org/1999/xlink" width="500" zoomAndPan="magnify" viewBox="0 0 375 374.999991" height="500" preserveAspectRatio="xMidYMid meet" version="1.0"><defs><clipPath id="2df8549bfc"><path d="M 135.84375 146.175781 L 239.144531 146.175781 L 239.144531 228.675781 L 135.84375 228.675781 Z M 135.84375 146.175781 " clip-rule="nonzero"/></clipPath></defs><g clip-path="url(#2df8549bfc)"><path fill="#ffaa0e" d="M 195.96875 146.25 L 197.316406 146.65625 L 236.050781 157.820312 L 239.144531 158.761719 L 239.144531 165.351562 L 236.457031 166.425781 L 200.273438 180.683594 L 199.464844 180.953125 L 175.523438 180.953125 L 174.851562 180.683594 L 151.984375 172.078125 L 151.851562 172.078125 C 148.058594 170.558594 144.453125 173.035156 144.453125 177.054688 L 144.453125 177.457031 C 144.453125 179.9375 145.707031 181.820312 148.085938 182.972656 C 148.183594 183.019531 148.253906 183.0625 148.355469 183.105469 L 187.496094 197.902344 L 219.910156 185.527344 C 229.03125 181.878906 239.144531 188.820312 239.144531 198.574219 L 239.144531 198.976562 C 239.144531 205.003906 235.304688 210.132812 230.132812 212.429688 L 230 212.429688 L 229.863281 212.5625 L 188.976562 228.03125 L 187.496094 228.570312 L 186.015625 228.03125 L 158.847656 217.675781 L 158.980469 217.40625 L 135.84375 208.929688 L 135.84375 199.515625 L 161.9375 209.605469 L 161.9375 209.738281 L 162.074219 209.738281 L 187.496094 219.421875 L 226.636719 204.628906 L 226.90625 204.492188 C 229.285156 203.339844 230.539062 201.457031 230.539062 198.976562 L 230.539062 198.574219 C 230.539062 194.554688 226.933594 192.082031 223.140625 193.597656 L 223.003906 193.597656 L 188.976562 206.511719 L 187.496094 207.046875 L 186.015625 206.511719 L 145.125 191.042969 L 144.992188 190.90625 L 144.855469 190.90625 C 139.6875 188.609375 135.84375 183.484375 135.84375 177.457031 L 135.84375 177.054688 C 135.84375 170.273438 140.828125 165.183594 146.875 163.738281 L 146.875 163.601562 L 148.21875 163.199219 L 194.625 146.789062 Z M 196.105469 155.398438 L 163.015625 166.964844 L 177.136719 172.347656 L 177.273438 172.347656 L 187.496094 165.484375 L 197.71875 172.347656 L 222.0625 162.796875 Z M 196.105469 155.398438 " fill-opacity="1" fill-rule="nonzero"/></g></svg>